  0
SECTION
  2
BLOCKS
  0
ENDSEC
  0
SECTION
  2
ENTITIES
  0
LINE
  8
0
 10
123.255
 20
-135.524
 11
141.905
 21
-130.525
  0
LINE
  8
0
 10
141.905
 20
-130.525
 11
141.911
 21
-130.523
  0
LINE
  8
0
 10
141.911
 20
-130.523
 11
141.914
 21
-130.521
  0
LINE
  8
0
 10
141.914
 20
-130.521
 11
141.916
 21
-130.519
  0
LINE
  8
0
 10
141.916
 20
-130.519
 11
141.919
 21
-130.517
  0
LINE
  8
0
 10
141.919
 20
-130.517
 11
141.92
 21
-130.515
  0
LINE
  8
0
 10
141.92
 20
-130.515
 11
141.922
 21
-130.513
  0
LINE
  8
0
 10
141.922
 20
-130.513
 11
141.923
 21
-130.51
  0
LINE
  8
0
 10
141.923
 20
-130.51
 11
141.924
 21
-130.508
  0
LINE
  8
0
 10
141.924
 20
-130.508
 11
141.924
 21
-130.506
  0
LINE
  8
0
 10
141.924
 20
-130.506
 11
141.925
 21
-130.504
  0
LINE
  8
0
 10
141.925
 20
-130.504
 11
141.925
 21
-21.9902
  0
LINE
  8
0
 10
141.925
 20
-21.9902
 11
141.904
 21
-21.7959
  0
LINE
  8
0
 10
141.904
 20
-21.7959
 11
141.904
 21
-21.7939
  0
LINE
  8
0
 10
141.904
 20
-21.7939
 11
141.903
 21
-21.791
  0
LINE
  8
0
 10
141.903
 20
-21.791
 11
141.846
 21
-21.6055
  0
LINE
  8
0
 10
141.846
 20
-21.6055
 11
141.845
 21
-21.6025
  0
LINE
  8
0
 10
141.845
 20
-21.6025
 11
141.844
 21
-21.6006
  0
LINE
  8
0
 10
141.844
 20
-21.6006
 11
141.751
 21
-21.4287
  0
LINE
  8
0
 10
141.751
 20
-21.4287
 11
141.75
 21
-21.4268
  0
LINE
  8
0
 10
141.75
 20
-21.4268
 11
141.748
 21
-21.4248
  0
LINE
  8
0
 10
141.748
 20
-21.4248
 11
141.624
 21
-21.2744
  0
LINE
  8
0
 10
141.624
 20
-21.2744
 11
141.622
 21
-21.2725
  0
LINE
  8
0
 10
141.622
 20
-21.2725
 11
141.62
 21
-21.2715
  0
LINE
  8
0
 10
141.62
 20
-21.2715
 11
141.469
 21
-21.1475
  0
LINE
  8
0
 10
141.469
 20
-21.1475
 11
141.467
 21
-21.1465
  0
LINE
  8
0
 10
141.467
 20
-21.1465
 11
141.465
 21
-21.1445
  0
LINE
  8
0
 10
141.465
 20
-21.1445
 11
141.293
 21
-21.0537
  0
LINE
  8
0
 10
141.293
 20
-21.0537
 11
141.291
 21
-21.0527
  0
LINE
  8
0
 10
141.291
 20
-21.0527
 11
141.288
 21
-21.0518
  0
LINE
  8
0
 10
141.288
 20
-21.0518
 11
141.101
 21
-20.9951
  0
LINE
  8
0
 10
141.101
 20
-20.9951
 11
141.099
 21
-20.9951
  0
LINE
  8
0
 10
141.099
 20
-20.9951
 11
141.097
 21
-20.9941
  0
LINE
  8
0
 10
141.097
 20
-20.9941
 11
140.901
 21
-20.9746
  0
LINE
  8
0
 10
140.901
 20
-20.9746
 11
116.006
 21
-20.9746
  0
LINE
  8
0
 10
116.006
 20
-20.9746
 11
114.207
 21
-20.1094
  0
LINE
  8
0
 10
114.207
 20
-20.1094
 11
110.646
 21
-18.5264
  0
LINE
  8
0
 10
110.646
 20
-18.5264
 11
107.025
 21
-17.0869
  0
LINE
  8
0
 10
107.025
 20
-17.0869
 11
103.349
 21
-15.7949
  0
LINE
  8
0
 10
103.349
 20
-15.7949
 11
99.625
 21
-14.6514
  0
LINE
  8
0
 10
99.625
 20
-14.6514
 11
95.8564
 21
-13.6582
  0
LINE
  8
0
 10
95.8564
 20
-13.6582
 11
92.0527
 21
-12.8164
  0
LINE
  8
0
 10
92.0527
 20
-12.8164
 11
88.2168
 21
-12.1289
  0
LINE
  8
0
 10
88.2168
 20
-12.1289
 11
84.3574
 21
-11.5957
  0
LINE
  8
0
 10
84.3574
 20
-11.5957
 11
80.4795
 21
-11.2168
  0
LINE
  8
0
 10
80.4795
 20
-11.2168
 11
76.5889
 21
-10.9951
  0
LINE
  8
0
 10
76.5889
 20
-10.9951
 11
72.6934
 21
-10.9287
  0
LINE
  8
0
 10
72.6934
 20
-10.9287
 11
68.7979
 21
-11.0195
  0
LINE
  8
0
 10
68.7979
 20
-11.0195
 11
64.9092
 21
-11.2666
  0
LINE
  8
0
 10
64.9092
 20
-11.2666
 11
61.0342
 21
-11.6689
  0
LINE
  8
0
 10
61.0342
 20
-11.6689
 11
57.1777
 21
-12.2266
  0
LINE
  8
0
 10
57.1777
 20
-12.2266
 11
53.3467
 21
-12.9395
  0
LINE
  8
0
 10
53.3467
 20
-12.9395
 11
49.5479
 21
-13.8047
  0
LINE
  8
0
 10
49.5479
 20
-13.8047
 11
45.7861
 21
-14.8213
  0
LINE
  8
0
 10
45.7861
 20
-14.8213
 11
42.0684
 21
-15.9883
  0
LINE
  8
0
 10
42.0684
 20
-15.9883
 11
38.4014
 21
-17.3037
  0
LINE
  8
0
 10
38.4014
 20
-17.3037
 11
34.7891
 21
-18.7656
  0
LINE
  8
0
 10
34.7891
 20
-18.7656
 11
31.2393
 21
-20.3711
  0
LINE
  8
0
 10
31.2393
 20
-20.3711
 11
27.7559
 21
-22.1172
  0
LINE
  8
0
 10
27.7559
 20
-22.1172
 11
24.3457
 21
-24.002
  0
LINE
  8
0
 10
24.3457
 20
-24.002
 11
21.0137
 21
-26.0225
  0
LINE
  8
0
 10
21.0137
 20
-26.0225
 11
21.0117
 21
-26.0244
  0
LINE
  8
0
 10
21.0117
 20
-26.0244
 11
21.0098
 21
-26.0254
  0
LINE
  8
0
 10
21.0098
 20
-26.0254
 11
21.0088
 21
-26.0273
  0
LINE
  8
0
 10
21.0088
 20
-26.0273
 11
20.8555
 21
-26.2021
  0
LINE
  8
0
 10
20.8555
 20
-26.2021
 11
20.8535
 21
-26.2051
  0
LINE
  8
0
 10
20.8535
 20
-26.2051
 11
20.3438
 21
-26.9365
  0
LINE
  8
0
 10
20.3438
 20
-26.9365
 11
20.3408
 21
-26.9404
  0
LINE
  8
0
 10
20.3408
 20
-26.9404
 11
19.9658
 21
-27.75
  0
LINE
  8
0
 10
19.9658
 20
-27.75
 11
19.9639
 21
-27.7549
  0
LINE
  8
0
 10
19.9639
 20
-27.7549
 11
19.9746
 21
-84.501
  0
LINE
  8
0
 10
19.9746
 20
-84.501
 11
19.9756
 21
-84.5186
  0
LINE
  8
0
 10
19.9756
 20
-84.5186
 11
19.9756
 21
-84.5205
  0
LINE
  8
0
 10
19.9756
 20
-84.5205
 11
20.0264
 21
-85.0049
  0
LINE
  8
0
 10
20.0264
 20
-85.0049
 11
20.0264
 21
-85.0078
  0
LINE
  8
0
 10
20.0264
 20
-85.0078
 11
20.0273
 21
-85.0098
  0
LINE
  8
0
 10
20.0273
 20
-85.0098
 11
20.1719
 21
-85.4766
  0
LINE
  8
0
 10
20.1719
 20
-85.4766
 11
20.1719
 21
-85.4785
  0
LINE
  8
0
 10
20.1719
 20
-85.4785
 11
20.1738
 21
-85.4805
  0
LINE
  8
0
 10
20.1738
 20
-85.4805
 11
20.4053
 21
-85.9102
  0
LINE
  8
0
 10
20.4053
 20
-85.9102
 11
20.4062
 21
-85.9121
  0
LINE
  8
0
 10
20.4062
 20
-85.9121
 11
20.4082
 21
-85.9141
  0
LINE
  8
0
 10
20.4082
 20
-85.9141
 11
20.7188
 21
-86.29
  0
LINE
  8
0
 10
20.7188
 20
-86.29
 11
20.7207
 21
-86.291
  0
LINE
  8
0
 10
20.7207
 20
-86.291
 11
20.7227
 21
-86.293
  0
LINE
  8
0
 10
20.7227
 20
-86.293
 11
21.1006
 21
-86.6016
  0
LINE
  8
0
 10
21.1006
 20
-86.6016
 11
21.1025
 21
-86.6025
  0
LINE
  8
0
 10
21.1025
 20
-86.6025
 11
21.1045
 21
-86.6045
  0
LINE
  8
0
 10
21.1045
 20
-86.6045
 11
21.5352
 21
-86.833
  0
LINE
  8
0
 10
21.5352
 20
-86.833
 11
21.5381
 21
-86.834
  0
LINE
  8
0
 10
21.5381
 20
-86.834
 11
21.54
 21
-86.835
  0
LINE
  8
0
 10
21.54
 20
-86.835
 11
22.0068
 21
-86.9766
  0
LINE
  8
0
 10
22.0068
 20
-86.9766
 11
22.0098
 21
-86.9766
  0
LINE
  8
0
 10
22.0098
 20
-86.9766
 11
22.0117
 21
-86.9775
  0
LINE
  8
0
 10
22.0117
 20
-86.9775
 11
22.499
 21
-87.0254
  0
LINE
  8
0
 10
22.499
 20
-87.0254
 11
66.999
 21
-87.0254
  0
LINE
  8
0
 10
66.999
 20
-87.0254
 11
67.2861
 21
-87.0527
  0
LINE
  8
0
 10
67.2861
 20
-87.0527
 11
67.5615
 21
-87.1367
  0
LINE
  8
0
 10
67.5615
 20
-87.1367
 11
67.8164
 21
-87.2715
  0
LINE
  8
0
 10
67.8164
 20
-87.2715
 11
68.0391
 21
-87.4531
  0
LINE
  8
0
 10
68.0391
 20
-87.4531
 11
68.2227
 21
-87.6758
  0
LINE
  8
0
 10
68.2227
 20
-87.6758
 11
68.3594
 21
-87.9287
  0
LINE
  8
0
 10
68.3594
 20
-87.9287
 11
68.4443
 21
-88.2031
  0
LINE
  8
0
 10
68.4443
 20
-88.2031
 11
68.4746
 21
-88.4912
  0
LINE
  8
0
 10
68.4746
 20
-88.4912
 11
68.4746
 21
-93.3213
  0
LINE
  8
0
 10
68.4746
 20
-93.3213
 11
68.4756
 21
-93.3242
  0
LINE
  8
0
 10
68.4756
 20
-93.3242
 11
68.5059
 21
-93.6152
  0
LINE
  8
0
 10
68.5059
 20
-93.6152
 11
68.5059
 21
-93.6172
  0
LINE
  8
0
 10
68.5059
 20
-93.6172
 11
68.5068
 21
-93.6201
  0
LINE
  8
0
 10
68.5068
 20
-93.6201
 11
68.5938
 21
-93.8994
  0
LINE
  8
0
 10
68.5938
 20
-93.8994
 11
68.5938
 21
-93.9023
  0
LINE
  8
0
 10
68.5938
 20
-93.9023
 11
68.5947
 21
-93.9043
  0
LINE
  8
0
 10
68.5947
 20
-93.9043
 11
68.7344
 21
-94.1621
  0
LINE
  8
0
 10
68.7344
 20
-94.1621
 11
68.7354
 21
-94.1641
  0
LINE
  8
0
 10
68.7354
 20
-94.1641
 11
68.7373
 21
-94.166
  0
LINE
  8
0
 10
68.7373
 20
-94.166
 11
68.9238
 21
-94.3916
  0
LINE
  8
0
 10
68.9238
 20
-94.3916
 11
68.9258
 21
-94.3926
  0
LINE
  8
0
 10
68.9258
 20
-94.3926
 11
68.9268
 21
-94.3945
  0
LINE
  8
0
 10
68.9268
 20
-94.3945
 11
69.1543
 21
-94.5801
  0
LINE
  8
0
 10
69.1543
 20
-94.5801
 11
69.1562
 21
-94.5811
  0
LINE
  8
0
 10
69.1562
 20
-94.5811
 11
69.1582
 21
-94.583
  0
LINE
  8
0
 10
69.1582
 20
-94.583
 11
69.417
 21
-94.7197
  0
LINE
  8
0
 10
69.417
 20
-94.7197
 11
69.4209
 21
-94.7217
  0
LINE
  8
0
 10
69.4209
 20
-94.7217
 11
69.7012
 21
-94.8066
  0
LINE
  8
0
 10
69.7012
 20
-94.8066
 11
69.7031
 21
-94.8066
  0
LINE
  8
0
 10
69.7031
 20
-94.8066
 11
69.7061
 21
-94.8076
  0
LINE
  8
0
 10
69.7061
 20
-94.8076
 11
69.999
 21
-94.8359
  0
LINE
  8
0
 10
69.999
 20
-94.8359
 11
72.8867
 21
-94.9121
  0
LINE
  8
0
 10
72.8867
 20
-94.9121
 11
75.7666
 21
-95.1387
  0
LINE
  8
0
 10
75.7666
 20
-95.1387
 11
78.6299
 21
-95.5156
  0
LINE
  8
0
 10
78.6299
 20
-95.5156
 11
81.4688
 21
-96.042
  0
LINE
  8
0
 10
81.4688
 20
-96.042
 11
84.2773
 21
-96.7158
  0
LINE
  8
0
 10
84.2773
 20
-96.7158
 11
87.0469
 21
-97.5361
  0
LINE
  8
0
 10
87.0469
 20
-97.5361
 11
89.7686
 21
-98.5
  0
LINE
  8
0
 10
89.7686
 20
-98.5
 11
92.4375
 21
-99.6055
  0
LINE
  8
0
 10
92.4375
 20
-99.6055
 11
95.0439
 21
-100.849
  0
LINE
  8
0
 10
95.0439
 20
-100.849
 11
97.582
 21
-102.227
  0
LINE
  8
0
 10
97.582
 20
-102.227
 11
100.044
 21
-103.736
  0
LINE
  8
0
 10
100.044
 20
-103.736
 11
102.425
 21
-105.371
  0
LINE
  8
0
 10
102.425
 20
-105.371
 11
104.716
 21
-107.13
  0
LINE
  8
0
 10
104.716
 20
-107.13
 11
106.912
 21
-109.005
  0
LINE
  8
0
 10
106.912
 20
-109.005
 11
109.007
 21
-110.993
  0
LINE
  8
0
 10
109.007
 20
-110.993
 11
110.995
 21
-113.088
  0
LINE
  8
0
 10
110.995
 20
-113.088
 11
112.87
 21
-115.284
  0
LINE
  8
0
 10
112.87
 20
-115.284
 11
114.629
 21
-117.575
  0
LINE
  8
0
 10
114.629
 20
-117.575
 11
116.264
 21
-119.956
  0
LINE
  8
0
 10
116.264
 20
-119.956
 11
117.773
 21
-122.418
  0
LINE
  8
0
 10
117.773
 20
-122.418
 11
119.151
 21
-124.956
  0
LINE
  8
0
 10
119.151
 20
-124.956
 11
120.395
 21
-127.563
  0
LINE
  8
0
 10
120.395
 20
-127.563
 11
121.5
 21
-130.231
  0
LINE
  8
0
 10
121.5
 20
-130.231
 11
122.464
 21
-132.953
  0
LINE
  8
0
 10
122.464
 20
-132.953
 11
123.226
 21
-135.507
  0
LINE
  8
0
 10
123.226
 20
-135.507
 11
123.227
 21
-135.511
  0
LINE
  8
0
 10
123.227
 20
-135.511
 11
123.232
 21
-135.517
  0
LINE
  8
0
 10
123.232
 20
-135.517
 11
123.233
 21
-135.519
  0
LINE
  8
0
 10
123.233
 20
-135.519
 11
123.237
 21
-135.522
  0
LINE
  8
0
 10
123.237
 20
-135.522
 11
123.242
 21
-135.524
  0
LINE
  8
0
 10
123.242
 20
-135.524
 11
123.244
 21
-135.524
  0
LINE
  8
0
 10
123.244
 20
-135.524
 11
123.247
 21
-135.525
  0
LINE
  8
0
 10
123.247
 20
-135.525
 11
123.252
 21
-135.525
  0
LINE
  8
0
 10
123.252
 20
-135.525
 11
123.255
 21
-135.524
  0
LINE
  8
0
 10
96.3798
 20
-40.6437
 11
96.1446
 21
-40.5937
  0
LINE
  8
0
 10
96.1446
 20
-40.5937
 11
95.925
 21
-40.4959
  0
LINE
  8
0
 10
95.925
 20
-40.4959
 11
95.7305
 21
-40.3546
  0
LINE
  8
0
 10
95.7305
 20
-40.3546
 11
95.5696
 21
-40.1759
  0
LINE
  8
0
 10
95.5696
 20
-40.1759
 11
95.4494
 21
-39.9677
  0
LINE
  8
0
 10
95.4494
 20
-39.9677
 11
95.3751
 21
-39.7391
  0
LINE
  8
0
 10
95.3751
 20
-39.7391
 11
95.35
 21
-39.5
  0
LINE
  8
0
 10
95.35
 20
-39.5
 11
95.3751
 21
-39.2609
  0
LINE
  8
0
 10
95.3751
 20
-39.2609
 11
95.4494
 21
-39.0322
  0
LINE
  8
0
 10
95.4494
 20
-39.0322
 11
95.5696
 21
-38.824
  0
LINE
  8
0
 10
95.5696
 20
-38.824
 11
95.7305
 21
-38.6454
  0
LINE
  8
0
 10
95.7305
 20
-38.6454
 11
95.925
 21
-38.5041
  0
LINE
  8
0
 10
95.925
 20
-38.5041
 11
96.1446
 21
-38.4063
  0
LINE
  8
0
 10
96.1446
 20
-38.4063
 11
96.3798
 21
-38.3563
  0
LINE
  8
0
 10
96.3798
 20
-38.3563
 11
96.6202
 21
-38.3563
  0
LINE
  8
0
 10
96.6202
 20
-38.3563
 11
96.8554
 21
-38.4063
  0
LINE
  8
0
 10
96.8554
 20
-38.4063
 11
97.075
 21
-38.5041
  0
LINE
  8
0
 10
97.075
 20
-38.5041
 11
97.2695
 21
-38.6454
  0
LINE
  8
0
 10
97.2695
 20
-38.6454
 11
97.4304
 21
-38.824
  0
LINE
  8
0
 10
97.4304
 20
-38.824
 11
97.5506
 21
-39.0322
  0
LINE
  8
0
 10
97.5506
 20
-39.0322
 11
97.6249
 21
-39.2609
  0
LINE
  8
0
 10
97.6249
 20
-39.2609
 11
97.65
 21
-39.5
  0
LINE
  8
0
 10
97.65
 20
-39.5
 11
97.6249
 21
-39.7391
  0
LINE
  8
0
 10
97.6249
 20
-39.7391
 11
97.5506
 21
-39.9677
  0
LINE
  8
0
 10
97.5506
 20
-39.9677
 11
97.4304
 21
-40.1759
  0
LINE
  8
0
 10
97.4304
 20
-40.1759
 11
97.2695
 21
-40.3546
  0
LINE
  8
0
 10
97.2695
 20
-40.3546
 11
97.075
 21
-40.4959
  0
LINE
  8
0
 10
97.075
 20
-40.4959
 11
96.8554
 21
-40.5937
  0
LINE
  8
0
 10
96.8554
 20
-40.5937
 11
96.6202
 21
-40.6437
  0
LINE
  8
0
 10
96.6202
 20
-40.6437
 11
96.3798
 21
-40.6437
  0
LINE
  8
0
 10
39.3798
 20
-49.6437
 11
39.1446
 21
-49.5937
  0
LINE
  8
0
 10
39.1446
 20
-49.5937
 11
38.925
 21
-49.4959
  0
LINE
  8
0
 10
38.925
 20
-49.4959
 11
38.7305
 21
-49.3546
  0
LINE
  8
0
 10
38.7305
 20
-49.3546
 11
38.5696
 21
-49.1759
  0
LINE
  8
0
 10
38.5696
 20
-49.1759
 11
38.4494
 21
-48.9677
  0
LINE
  8
0
 10
38.4494
 20
-48.9677
 11
38.3751
 21
-48.7391
  0
LINE
  8
0
 10
38.3751
 20
-48.7391
 11
38.35
 21
-48.5
  0
LINE
  8
0
 10
38.35
 20
-48.5
 11
38.3751
 21
-48.2609
  0
LINE
  8
0
 10
38.3751
 20
-48.2609
 11
38.4494
 21
-48.0322
  0
LINE
  8
0
 10
38.4494
 20
-48.0322
 11
38.5696
 21
-47.824
  0
LINE
  8
0
 10
38.5696
 20
-47.824
 11
38.7305
 21
-47.6454
  0
LINE
  8
0
 10
38.7305
 20
-47.6454
 11
38.925
 21
-47.5041
  0
LINE
  8
0
 10
38.925
 20
-47.5041
 11
39.1446
 21
-47.4063
  0
LINE
  8
0
 10
39.1446
 20
-47.4063
 11
39.3798
 21
-47.3563
  0
LINE
  8
0
 10
39.3798
 20
-47.3563
 11
39.6202
 21
-47.3563
  0
LINE
  8
0
 10
39.6202
 20
-47.3563
 11
39.8554
 21
-47.4063
  0
LINE
  8
0
 10
39.8554
 20
-47.4063
 11
40.075
 21
-47.5041
  0
LINE
  8
0
 10
40.075
 20
-47.5041
 11
40.2695
 21
-47.6454
  0
LINE
  8
0
 10
40.2695
 20
-47.6454
 11
40.4304
 21
-47.824
  0
LINE
  8
0
 10
40.4304
 20
-47.824
 11
40.5506
 21
-48.0322
  0
LINE
  8
0
 10
40.5506
 20
-48.0322
 11
40.6249
 21
-48.2609
  0
LINE
  8
0
 10
40.6249
 20
-48.2609
 11
40.65
 21
-48.5
  0
LINE
  8
0
 10
40.65
 20
-48.5
 11
40.6249
 21
-48.7391
  0
LINE
  8
0
 10
40.6249
 20
-48.7391
 11
40.5506
 21
-48.9677
  0
LINE
  8
0
 10
40.5506
 20
-48.9677
 11
40.4304
 21
-49.1759
  0
LINE
  8
0
 10
40.4304
 20
-49.1759
 11
40.2695
 21
-49.3546
  0
LINE
  8
0
 10
40.2695
 20
-49.3546
 11
40.075
 21
-49.4959
  0
LINE
  8
0
 10
40.075
 20
-49.4959
 11
39.8554
 21
-49.5937
  0
LINE
  8
0
 10
39.8554
 20
-49.5937
 11
39.6202
 21
-49.6437
  0
LINE
  8
0
 10
39.6202
 20
-49.6437
 11
39.3798
 21
-49.6437
  0
LINE
  8
0
 10
96.3798
 20
-59.6437
 11
96.1446
 21
-59.5937
  0
LINE
  8
0
 10
96.1446
 20
-59.5937
 11
95.925
 21
-59.4959
  0
LINE
  8
0
 10
95.925
 20
-59.4959
 11
95.7305
 21
-59.3546
  0
LINE
  8
0
 10
95.7305
 20
-59.3546
 11
95.5696
 21
-59.1759
  0
LINE
  8
0
 10
95.5696
 20
-59.1759
 11
95.4494
 21
-58.9677
  0
LINE
  8
0
 10
95.4494
 20
-58.9677
 11
95.3751
 21
-58.7391
  0
LINE
  8
0
 10
95.3751
 20
-58.7391
 11
95.35
 21
-58.5
  0
LINE
  8
0
 10
95.35
 20
-58.5
 11
95.3751
 21
-58.2609
  0
LINE
  8
0
 10
95.3751
 20
-58.2609
 11
95.4494
 21
-58.0322
  0
LINE
  8
0
 10
95.4494
 20
-58.0322
 11
95.5696
 21
-57.824
  0
LINE
  8
0
 10
95.5696
 20
-57.824
 11
95.7305
 21
-57.6454
  0
LINE
  8
0
 10
95.7305
 20
-57.6454
 11
95.925
 21
-57.5041
  0
LINE
  8
0
 10
95.925
 20
-57.5041
 11
96.1446
 21
-57.4063
  0
LINE
  8
0
 10
96.1446
 20
-57.4063
 11
96.3798
 21
-57.3563
  0
LINE
  8
0
 10
96.3798
 20
-57.3563
 11
96.6202
 21
-57.3563
  0
LINE
  8
0
 10
96.6202
 20
-57.3563
 11
96.8554
 21
-57.4063
  0
LINE
  8
0
 10
96.8554
 20
-57.4063
 11
97.075
 21
-57.5041
  0
LINE
  8
0
 10
97.075
 20
-57.5041
 11
97.2695
 21
-57.6454
  0
LINE
  8
0
 10
97.2695
 20
-57.6454
 11
97.4304
 21
-57.824
  0
LINE
  8
0
 10
97.4304
 20
-57.824
 11
97.5506
 21
-58.0322
  0
LINE
  8
0
 10
97.5506
 20
-58.0322
 11
97.6249
 21
-58.2609
  0
LINE
  8
0
 10
97.6249
 20
-58.2609
 11
97.65
 21
-58.5
  0
LINE
  8
0
 10
97.65
 20
-58.5
 11
97.6249
 21
-58.7391
  0
LINE
  8
0
 10
97.6249
 20
-58.7391
 11
97.5506
 21
-58.9677
  0
LINE
  8
0
 10
97.5506
 20
-58.9677
 11
97.4304
 21
-59.1759
  0
LINE
  8
0
 10
97.4304
 20
-59.1759
 11
97.2695
 21
-59.3546
  0
LINE
  8
0
 10
97.2695
 20
-59.3546
 11
97.075
 21
-59.4959
  0
LINE
  8
0
 10
97.075
 20
-59.4959
 11
96.8554
 21
-59.5937
  0
LINE
  8
0
 10
96.8554
 20
-59.5937
 11
96.6202
 21
-59.6437
  0
LINE
  8
0
 10
96.6202
 20
-59.6437
 11
96.3798
 21
-59.6437
  0
LINE
  8
0
 10
39.3798
 20
-68.6437
 11
39.1446
 21
-68.5937
  0
LINE
  8
0
 10
39.1446
 20
-68.5937
 11
38.925
 21
-68.4959
  0
LINE
  8
0
 10
38.925
 20
-68.4959
 11
38.7305
 21
-68.3546
  0
LINE
  8
0
 10
38.7305
 20
-68.3546
 11
38.5696
 21
-68.1759
  0
LINE
  8
0
 10
38.5696
 20
-68.1759
 11
38.4494
 21
-67.9677
  0
LINE
  8
0
 10
38.4494
 20
-67.9677
 11
38.3751
 21
-67.7391
  0
LINE
  8
0
 10
38.3751
 20
-67.7391
 11
38.35
 21
-67.5
  0
LINE
  8
0
 10
38.35
 20
-67.5
 11
38.3751
 21
-67.2609
  0
LINE
  8
0
 10
38.3751
 20
-67.2609
 11
38.4494
 21
-67.0322
  0
LINE
  8
0
 10
38.4494
 20
-67.0322
 11
38.5696
 21
-66.824
  0
LINE
  8
0
 10
38.5696
 20
-66.824
 11
38.7305
 21
-66.6454
  0
LINE
  8
0
 10
38.7305
 20
-66.6454
 11
38.925
 21
-66.5041
  0
LINE
  8
0
 10
38.925
 20
-66.5041
 11
39.1446
 21
-66.4063
  0
LINE
  8
0
 10
39.1446
 20
-66.4063
 11
39.3798
 21
-66.3563
  0
LINE
  8
0
 10
39.3798
 20
-66.3563
 11
39.6202
 21
-66.3563
  0
LINE
  8
0
 10
39.6202
 20
-66.3563
 11
39.8554
 21
-66.4063
  0
LINE
  8
0
 10
39.8554
 20
-66.4063
 11
40.075
 21
-66.5041
  0
LINE
  8
0
 10
40.075
 20
-66.5041
 11
40.2695
 21
-66.6454
  0
LINE
  8
0
 10
40.2695
 20
-66.6454
 11
40.4304
 21
-66.824
  0
LINE
  8
0
 10
40.4304
 20
-66.824
 11
40.5506
 21
-67.0322
  0
LINE
  8
0
 10
40.5506
 20
-67.0322
 11
40.6249
 21
-67.2609
  0
LINE
  8
0
 10
40.6249
 20
-67.2609
 11
40.65
 21
-67.5
  0
LINE
  8
0
 10
40.65
 20
-67.5
 11
40.6249
 21
-67.7391
  0
LINE
  8
0
 10
40.6249
 20
-67.7391
 11
40.5506
 21
-67.9677
  0
LINE
  8
0
 10
40.5506
 20
-67.9677
 11
40.4304
 21
-68.1759
  0
LINE
  8
0
 10
40.4304
 20
-68.1759
 11
40.2695
 21
-68.3546
  0
LINE
  8
0
 10
40.2695
 20
-68.3546
 11
40.075
 21
-68.4959
  0
LINE
  8
0
 10
40.075
 20
-68.4959
 11
39.8554
 21
-68.5937
  0
LINE
  8
0
 10
39.8554
 20
-68.5937
 11
39.6202
 21
-68.6437
  0
LINE
  8
0
 10
39.6202
 20
-68.6437
 11
39.3798
 21
-68.6437
  0
LINE
  8
0
 10
113.38
 20
-92.6437
 11
113.145
 21
-92.5937
  0
LINE
  8
0
 10
113.145
 20
-92.5937
 11
112.925
 21
-92.4959
  0
LINE
  8
0
 10
112.925
 20
-92.4959
 11
112.73
 21
-92.3546
  0
LINE
  8
0
 10
112.73
 20
-92.3546
 11
112.57
 21
-92.1759
  0
LINE
  8
0
 10
112.57
 20
-92.1759
 11
112.449
 21
-91.9677
  0
LINE
  8
0
 10
112.449
 20
-91.9677
 11
112.375
 21
-91.7391
  0
LINE
  8
0
 10
112.375
 20
-91.7391
 11
112.35
 21
-91.5
  0
LINE
  8
0
 10
112.35
 20
-91.5
 11
112.375
 21
-91.2609
  0
LINE
  8
0
 10
112.375
 20
-91.2609
 11
112.449
 21
-91.0322
  0
LINE
  8
0
 10
112.449
 20
-91.0322
 11
112.57
 21
-90.824
  0
LINE
  8
0
 10
112.57
 20
-90.824
 11
112.73
 21
-90.6454
  0
LINE
  8
0
 10
112.73
 20
-90.6454
 11
112.925
 21
-90.5041
  0
LINE
  8
0
 10
112.925
 20
-90.5041
 11
113.145
 21
-90.4063
  0
LINE
  8
0
 10
113.145
 20
-90.4063
 11
113.38
 21
-90.3563
  0
LINE
  8
0
 10
113.38
 20
-90.3563
 11
113.62
 21
-90.3563
  0
LINE
  8
0
 10
113.62
 20
-90.3563
 11
113.855
 21
-90.4063
  0
LINE
  8
0
 10
113.855
 20
-90.4063
 11
114.075
 21
-90.5041
  0
LINE
  8
0
 10
114.075
 20
-90.5041
 11
114.269
 21
-90.6454
  0
LINE
  8
0
 10
114.269
 20
-90.6454
 11
114.43
 21
-90.824
  0
LINE
  8
0
 10
114.43
 20
-90.824
 11
114.551
 21
-91.0322
  0
LINE
  8
0
 10
114.551
 20
-91.0322
 11
114.625
 21
-91.2609
  0
LINE
  8
0
 10
114.625
 20
-91.2609
 11
114.65
 21
-91.5
  0
LINE
  8
0
 10
114.65
 20
-91.5
 11
114.625
 21
-91.7391
  0
LINE
  8
0
 10
114.625
 20
-91.7391
 11
114.551
 21
-91.9677
  0
LINE
  8
0
 10
114.551
 20
-91.9677
 11
114.43
 21
-92.1759
  0
LINE
  8
0
 10
114.43
 20
-92.1759
 11
114.269
 21
-92.3546
  0
LINE
  8
0
 10
114.269
 20
-92.3546
 11
114.075
 21
-92.4959
  0
LINE
  8
0
 10
114.075
 20
-92.4959
 11
113.855
 21
-92.5937
  0
LINE
  8
0
 10
113.855
 20
-92.5937
 11
113.62
 21
-92.6437
  0
LINE
  8
0
 10
113.62
 20
-92.6437
 11
113.38
 21
-92.6437
  0
ENDSEC
  0
SECTION
  2
OBJECTS
  0
DICTIONARY
  0
ENDSEC
  0
EOF
