  0
SECTION
  2
BLOCKS
  0
ENDSEC
  0
SECTION
  2
ENTITIES
  0
LINE
  8
0
 10
223.255
 20
-135.524
 11
241.905
 21
-130.525
  0
LINE
  8
0
 10
241.905
 20
-130.525
 11
241.911
 21
-130.523
  0
LINE
  8
0
 10
241.911
 20
-130.523
 11
241.914
 21
-130.521
  0
LINE
  8
0
 10
241.914
 20
-130.521
 11
241.916
 21
-130.519
  0
LINE
  8
0
 10
241.916
 20
-130.519
 11
241.919
 21
-130.517
  0
LINE
  8
0
 10
241.919
 20
-130.517
 11
241.92
 21
-130.515
  0
LINE
  8
0
 10
241.92
 20
-130.515
 11
241.922
 21
-130.513
  0
LINE
  8
0
 10
241.922
 20
-130.513
 11
241.923
 21
-130.51
  0
LINE
  8
0
 10
241.923
 20
-130.51
 11
241.924
 21
-130.508
  0
LINE
  8
0
 10
241.924
 20
-130.508
 11
241.924
 21
-130.506
  0
LINE
  8
0
 10
241.924
 20
-130.506
 11
241.925
 21
-130.504
  0
LINE
  8
0
 10
241.925
 20
-130.504
 11
241.925
 21
-21.9902
  0
LINE
  8
0
 10
241.925
 20
-21.9902
 11
241.904
 21
-21.7959
  0
LINE
  8
0
 10
241.904
 20
-21.7959
 11
241.904
 21
-21.7939
  0
LINE
  8
0
 10
241.904
 20
-21.7939
 11
241.903
 21
-21.791
  0
LINE
  8
0
 10
241.903
 20
-21.791
 11
241.846
 21
-21.6055
  0
LINE
  8
0
 10
241.846
 20
-21.6055
 11
241.845
 21
-21.6025
  0
LINE
  8
0
 10
241.845
 20
-21.6025
 11
241.844
 21
-21.6006
  0
LINE
  8
0
 10
241.844
 20
-21.6006
 11
241.751
 21
-21.4287
  0
LINE
  8
0
 10
241.751
 20
-21.4287
 11
241.75
 21
-21.4268
  0
LINE
  8
0
 10
241.75
 20
-21.4268
 11
241.748
 21
-21.4248
  0
LINE
  8
0
 10
241.748
 20
-21.4248
 11
241.624
 21
-21.2744
  0
LINE
  8
0
 10
241.624
 20
-21.2744
 11
241.622
 21
-21.2725
  0
LINE
  8
0
 10
241.622
 20
-21.2725
 11
241.62
 21
-21.2715
  0
LINE
  8
0
 10
241.62
 20
-21.2715
 11
241.469
 21
-21.1475
  0
LINE
  8
0
 10
241.469
 20
-21.1475
 11
241.467
 21
-21.1465
  0
LINE
  8
0
 10
241.467
 20
-21.1465
 11
241.465
 21
-21.1445
  0
LINE
  8
0
 10
241.465
 20
-21.1445
 11
241.293
 21
-21.0537
  0
LINE
  8
0
 10
241.293
 20
-21.0537
 11
241.291
 21
-21.0527
  0
LINE
  8
0
 10
241.291
 20
-21.0527
 11
241.288
 21
-21.0518
  0
LINE
  8
0
 10
241.288
 20
-21.0518
 11
241.101
 21
-20.9951
  0
LINE
  8
0
 10
241.101
 20
-20.9951
 11
241.099
 21
-20.9951
  0
LINE
  8
0
 10
241.099
 20
-20.9951
 11
241.097
 21
-20.9941
  0
LINE
  8
0
 10
241.097
 20
-20.9941
 11
240.901
 21
-20.9746
  0
LINE
  8
0
 10
240.901
 20
-20.9746
 11
216.006
 21
-20.9746
  0
LINE
  8
0
 10
216.006
 20
-20.9746
 11
214.207
 21
-20.1094
  0
LINE
  8
0
 10
214.207
 20
-20.1094
 11
210.646
 21
-18.5264
  0
LINE
  8
0
 10
210.646
 20
-18.5264
 11
207.025
 21
-17.0869
  0
LINE
  8
0
 10
207.025
 20
-17.0869
 11
203.349
 21
-15.7949
  0
LINE
  8
0
 10
203.349
 20
-15.7949
 11
199.625
 21
-14.6514
  0
LINE
  8
0
 10
199.625
 20
-14.6514
 11
195.856
 21
-13.6582
  0
LINE
  8
0
 10
195.856
 20
-13.6582
 11
192.053
 21
-12.8164
  0
LINE
  8
0
 10
192.053
 20
-12.8164
 11
188.217
 21
-12.1289
  0
LINE
  8
0
 10
188.217
 20
-12.1289
 11
184.357
 21
-11.5957
  0
LINE
  8
0
 10
184.357
 20
-11.5957
 11
180.479
 21
-11.2168
  0
LINE
  8
0
 10
180.479
 20
-11.2168
 11
176.589
 21
-10.9951
  0
LINE
  8
0
 10
176.589
 20
-10.9951
 11
172.693
 21
-10.9287
  0
LINE
  8
0
 10
172.693
 20
-10.9287
 11
168.798
 21
-11.0195
  0
LINE
  8
0
 10
168.798
 20
-11.0195
 11
164.909
 21
-11.2666
  0
LINE
  8
0
 10
164.909
 20
-11.2666
 11
161.034
 21
-11.6689
  0
LINE
  8
0
 10
161.034
 20
-11.6689
 11
157.178
 21
-12.2266
  0
LINE
  8
0
 10
157.178
 20
-12.2266
 11
153.347
 21
-12.9395
  0
LINE
  8
0
 10
153.347
 20
-12.9395
 11
149.548
 21
-13.8047
  0
LINE
  8
0
 10
149.548
 20
-13.8047
 11
145.786
 21
-14.8213
  0
LINE
  8
0
 10
145.786
 20
-14.8213
 11
142.068
 21
-15.9883
  0
LINE
  8
0
 10
142.068
 20
-15.9883
 11
138.401
 21
-17.3037
  0
LINE
  8
0
 10
138.401
 20
-17.3037
 11
134.789
 21
-18.7656
  0
LINE
  8
0
 10
134.789
 20
-18.7656
 11
131.239
 21
-20.3711
  0
LINE
  8
0
 10
131.239
 20
-20.3711
 11
127.756
 21
-22.1172
  0
LINE
  8
0
 10
127.756
 20
-22.1172
 11
124.346
 21
-24.002
  0
LINE
  8
0
 10
124.346
 20
-24.002
 11
121.014
 21
-26.0225
  0
LINE
  8
0
 10
121.014
 20
-26.0225
 11
121.012
 21
-26.0244
  0
LINE
  8
0
 10
121.012
 20
-26.0244
 11
121.01
 21
-26.0254
  0
LINE
  8
0
 10
121.01
 20
-26.0254
 11
121.009
 21
-26.0273
  0
LINE
  8
0
 10
121.009
 20
-26.0273
 11
120.855
 21
-26.2021
  0
LINE
  8
0
 10
120.855
 20
-26.2021
 11
120.854
 21
-26.2051
  0
LINE
  8
0
 10
120.854
 20
-26.2051
 11
120.344
 21
-26.9365
  0
LINE
  8
0
 10
120.344
 20
-26.9365
 11
120.341
 21
-26.9404
  0
LINE
  8
0
 10
120.341
 20
-26.9404
 11
119.966
 21
-27.75
  0
LINE
  8
0
 10
119.966
 20
-27.75
 11
119.964
 21
-27.7549
  0
LINE
  8
0
 10
119.964
 20
-27.7549
 11
119.975
 21
-84.501
  0
LINE
  8
0
 10
119.975
 20
-84.501
 11
119.976
 21
-84.5186
  0
LINE
  8
0
 10
119.976
 20
-84.5186
 11
119.976
 21
-84.5205
  0
LINE
  8
0
 10
119.976
 20
-84.5205
 11
120.026
 21
-85.0049
  0
LINE
  8
0
 10
120.026
 20
-85.0049
 11
120.026
 21
-85.0078
  0
LINE
  8
0
 10
120.026
 20
-85.0078
 11
120.027
 21
-85.0098
  0
LINE
  8
0
 10
120.027
 20
-85.0098
 11
120.172
 21
-85.4766
  0
LINE
  8
0
 10
120.172
 20
-85.4766
 11
120.172
 21
-85.4785
  0
LINE
  8
0
 10
120.172
 20
-85.4785
 11
120.174
 21
-85.4805
  0
LINE
  8
0
 10
120.174
 20
-85.4805
 11
120.405
 21
-85.9102
  0
LINE
  8
0
 10
120.405
 20
-85.9102
 11
120.406
 21
-85.9121
  0
LINE
  8
0
 10
120.406
 20
-85.9121
 11
120.408
 21
-85.9141
  0
LINE
  8
0
 10
120.408
 20
-85.9141
 11
120.719
 21
-86.29
  0
LINE
  8
0
 10
120.719
 20
-86.29
 11
120.721
 21
-86.291
  0
LINE
  8
0
 10
120.721
 20
-86.291
 11
120.723
 21
-86.293
  0
LINE
  8
0
 10
120.723
 20
-86.293
 11
121.101
 21
-86.6016
  0
LINE
  8
0
 10
121.101
 20
-86.6016
 11
121.103
 21
-86.6025
  0
LINE
  8
0
 10
121.103
 20
-86.6025
 11
121.104
 21
-86.6045
  0
LINE
  8
0
 10
121.104
 20
-86.6045
 11
121.535
 21
-86.833
  0
LINE
  8
0
 10
121.535
 20
-86.833
 11
121.538
 21
-86.834
  0
LINE
  8
0
 10
121.538
 20
-86.834
 11
121.54
 21
-86.835
  0
LINE
  8
0
 10
121.54
 20
-86.835
 11
122.007
 21
-86.9766
  0
LINE
  8
0
 10
122.007
 20
-86.9766
 11
122.01
 21
-86.9766
  0
LINE
  8
0
 10
122.01
 20
-86.9766
 11
122.012
 21
-86.9775
  0
LINE
  8
0
 10
122.012
 20
-86.9775
 11
122.499
 21
-87.0254
  0
LINE
  8
0
 10
122.499
 20
-87.0254
 11
166.999
 21
-87.0254
  0
LINE
  8
0
 10
166.999
 20
-87.0254
 11
167.286
 21
-87.0527
  0
LINE
  8
0
 10
167.286
 20
-87.0527
 11
167.562
 21
-87.1367
  0
LINE
  8
0
 10
167.562
 20
-87.1367
 11
167.816
 21
-87.2715
  0
LINE
  8
0
 10
167.816
 20
-87.2715
 11
168.039
 21
-87.4531
  0
LINE
  8
0
 10
168.039
 20
-87.4531
 11
168.223
 21
-87.6758
  0
LINE
  8
0
 10
168.223
 20
-87.6758
 11
168.359
 21
-87.9287
  0
LINE
  8
0
 10
168.359
 20
-87.9287
 11
168.444
 21
-88.2031
  0
LINE
  8
0
 10
168.444
 20
-88.2031
 11
168.475
 21
-88.4912
  0
LINE
  8
0
 10
168.475
 20
-88.4912
 11
168.475
 21
-93.3213
  0
LINE
  8
0
 10
168.475
 20
-93.3213
 11
168.476
 21
-93.3242
  0
LINE
  8
0
 10
168.476
 20
-93.3242
 11
168.506
 21
-93.6152
  0
LINE
  8
0
 10
168.506
 20
-93.6152
 11
168.506
 21
-93.6172
  0
LINE
  8
0
 10
168.506
 20
-93.6172
 11
168.507
 21
-93.6201
  0
LINE
  8
0
 10
168.507
 20
-93.6201
 11
168.594
 21
-93.8994
  0
LINE
  8
0
 10
168.594
 20
-93.8994
 11
168.594
 21
-93.9023
  0
LINE
  8
0
 10
168.594
 20
-93.9023
 11
168.595
 21
-93.9043
  0
LINE
  8
0
 10
168.595
 20
-93.9043
 11
168.734
 21
-94.1621
  0
LINE
  8
0
 10
168.734
 20
-94.1621
 11
168.735
 21
-94.1641
  0
LINE
  8
0
 10
168.735
 20
-94.1641
 11
168.737
 21
-94.166
  0
LINE
  8
0
 10
168.737
 20
-94.166
 11
168.924
 21
-94.3916
  0
LINE
  8
0
 10
168.924
 20
-94.3916
 11
168.926
 21
-94.3926
  0
LINE
  8
0
 10
168.926
 20
-94.3926
 11
168.927
 21
-94.3945
  0
LINE
  8
0
 10
168.927
 20
-94.3945
 11
169.154
 21
-94.5801
  0
LINE
  8
0
 10
169.154
 20
-94.5801
 11
169.156
 21
-94.5811
  0
LINE
  8
0
 10
169.156
 20
-94.5811
 11
169.158
 21
-94.583
  0
LINE
  8
0
 10
169.158
 20
-94.583
 11
169.417
 21
-94.7197
  0
LINE
  8
0
 10
169.417
 20
-94.7197
 11
169.421
 21
-94.7217
  0
LINE
  8
0
 10
169.421
 20
-94.7217
 11
169.701
 21
-94.8066
  0
LINE
  8
0
 10
169.701
 20
-94.8066
 11
169.703
 21
-94.8066
  0
LINE
  8
0
 10
169.703
 20
-94.8066
 11
169.706
 21
-94.8076
  0
LINE
  8
0
 10
169.706
 20
-94.8076
 11
169.999
 21
-94.8359
  0
LINE
  8
0
 10
169.999
 20
-94.8359
 11
172.887
 21
-94.9121
  0
LINE
  8
0
 10
172.887
 20
-94.9121
 11
175.767
 21
-95.1387
  0
LINE
  8
0
 10
175.767
 20
-95.1387
 11
178.63
 21
-95.5156
  0
LINE
  8
0
 10
178.63
 20
-95.5156
 11
181.469
 21
-96.042
  0
LINE
  8
0
 10
181.469
 20
-96.042
 11
184.277
 21
-96.7158
  0
LINE
  8
0
 10
184.277
 20
-96.7158
 11
187.047
 21
-97.5361
  0
LINE
  8
0
 10
187.047
 20
-97.5361
 11
189.769
 21
-98.5
  0
LINE
  8
0
 10
189.769
 20
-98.5
 11
192.438
 21
-99.6055
  0
LINE
  8
0
 10
192.438
 20
-99.6055
 11
195.044
 21
-100.849
  0
LINE
  8
0
 10
195.044
 20
-100.849
 11
197.582
 21
-102.227
  0
LINE
  8
0
 10
197.582
 20
-102.227
 11
200.044
 21
-103.736
  0
LINE
  8
0
 10
200.044
 20
-103.736
 11
202.425
 21
-105.371
  0
LINE
  8
0
 10
202.425
 20
-105.371
 11
204.716
 21
-107.13
  0
LINE
  8
0
 10
204.716
 20
-107.13
 11
206.912
 21
-109.005
  0
LINE
  8
0
 10
206.912
 20
-109.005
 11
209.007
 21
-110.993
  0
LINE
  8
0
 10
209.007
 20
-110.993
 11
210.995
 21
-113.088
  0
LINE
  8
0
 10
210.995
 20
-113.088
 11
212.87
 21
-115.284
  0
LINE
  8
0
 10
212.87
 20
-115.284
 11
214.629
 21
-117.575
  0
LINE
  8
0
 10
214.629
 20
-117.575
 11
216.264
 21
-119.956
  0
LINE
  8
0
 10
216.264
 20
-119.956
 11
217.773
 21
-122.418
  0
LINE
  8
0
 10
217.773
 20
-122.418
 11
219.151
 21
-124.956
  0
LINE
  8
0
 10
219.151
 20
-124.956
 11
220.395
 21
-127.563
  0
LINE
  8
0
 10
220.395
 20
-127.563
 11
221.5
 21
-130.231
  0
LINE
  8
0
 10
221.5
 20
-130.231
 11
222.464
 21
-132.953
  0
LINE
  8
0
 10
222.464
 20
-132.953
 11
223.226
 21
-135.507
  0
LINE
  8
0
 10
223.226
 20
-135.507
 11
223.227
 21
-135.511
  0
LINE
  8
0
 10
223.227
 20
-135.511
 11
223.232
 21
-135.517
  0
LINE
  8
0
 10
223.232
 20
-135.517
 11
223.233
 21
-135.519
  0
LINE
  8
0
 10
223.233
 20
-135.519
 11
223.237
 21
-135.522
  0
LINE
  8
0
 10
223.237
 20
-135.522
 11
223.242
 21
-135.524
  0
LINE
  8
0
 10
223.242
 20
-135.524
 11
223.244
 21
-135.524
  0
LINE
  8
0
 10
223.244
 20
-135.524
 11
223.247
 21
-135.525
  0
LINE
  8
0
 10
223.247
 20
-135.525
 11
223.252
 21
-135.525
  0
LINE
  8
0
 10
223.252
 20
-135.525
 11
223.255
 21
-135.524
  0
LINE
  8
0
 10
196.38
 20
-40.6437
 11
196.145
 21
-40.5937
  0
LINE
  8
0
 10
196.145
 20
-40.5937
 11
195.925
 21
-40.4959
  0
LINE
  8
0
 10
195.925
 20
-40.4959
 11
195.73
 21
-40.3546
  0
LINE
  8
0
 10
195.73
 20
-40.3546
 11
195.57
 21
-40.1759
  0
LINE
  8
0
 10
195.57
 20
-40.1759
 11
195.449
 21
-39.9677
  0
LINE
  8
0
 10
195.449
 20
-39.9677
 11
195.375
 21
-39.7391
  0
LINE
  8
0
 10
195.375
 20
-39.7391
 11
195.35
 21
-39.5
  0
LINE
  8
0
 10
195.35
 20
-39.5
 11
195.375
 21
-39.2609
  0
LINE
  8
0
 10
195.375
 20
-39.2609
 11
195.449
 21
-39.0322
  0
LINE
  8
0
 10
195.449
 20
-39.0322
 11
195.57
 21
-38.824
  0
LINE
  8
0
 10
195.57
 20
-38.824
 11
195.73
 21
-38.6454
  0
LINE
  8
0
 10
195.73
 20
-38.6454
 11
195.925
 21
-38.5041
  0
LINE
  8
0
 10
195.925
 20
-38.5041
 11
196.145
 21
-38.4063
  0
LINE
  8
0
 10
196.145
 20
-38.4063
 11
196.38
 21
-38.3563
  0
LINE
  8
0
 10
196.38
 20
-38.3563
 11
196.62
 21
-38.3563
  0
LINE
  8
0
 10
196.62
 20
-38.3563
 11
196.855
 21
-38.4063
  0
LINE
  8
0
 10
196.855
 20
-38.4063
 11
197.075
 21
-38.5041
  0
LINE
  8
0
 10
197.075
 20
-38.5041
 11
197.269
 21
-38.6454
  0
LINE
  8
0
 10
197.269
 20
-38.6454
 11
197.43
 21
-38.824
  0
LINE
  8
0
 10
197.43
 20
-38.824
 11
197.551
 21
-39.0322
  0
LINE
  8
0
 10
197.551
 20
-39.0322
 11
197.625
 21
-39.2609
  0
LINE
  8
0
 10
197.625
 20
-39.2609
 11
197.65
 21
-39.5
  0
LINE
  8
0
 10
197.65
 20
-39.5
 11
197.625
 21
-39.7391
  0
LINE
  8
0
 10
197.625
 20
-39.7391
 11
197.551
 21
-39.9677
  0
LINE
  8
0
 10
197.551
 20
-39.9677
 11
197.43
 21
-40.1759
  0
LINE
  8
0
 10
197.43
 20
-40.1759
 11
197.269
 21
-40.3546
  0
LINE
  8
0
 10
197.269
 20
-40.3546
 11
197.075
 21
-40.4959
  0
LINE
  8
0
 10
197.075
 20
-40.4959
 11
196.855
 21
-40.5937
  0
LINE
  8
0
 10
196.855
 20
-40.5937
 11
196.62
 21
-40.6437
  0
LINE
  8
0
 10
196.62
 20
-40.6437
 11
196.38
 21
-40.6437
  0
LINE
  8
0
 10
139.38
 20
-49.6437
 11
139.145
 21
-49.5937
  0
LINE
  8
0
 10
139.145
 20
-49.5937
 11
138.925
 21
-49.4959
  0
LINE
  8
0
 10
138.925
 20
-49.4959
 11
138.73
 21
-49.3546
  0
LINE
  8
0
 10
138.73
 20
-49.3546
 11
138.57
 21
-49.1759
  0
LINE
  8
0
 10
138.57
 20
-49.1759
 11
138.449
 21
-48.9677
  0
LINE
  8
0
 10
138.449
 20
-48.9677
 11
138.375
 21
-48.7391
  0
LINE
  8
0
 10
138.375
 20
-48.7391
 11
138.35
 21
-48.5
  0
LINE
  8
0
 10
138.35
 20
-48.5
 11
138.375
 21
-48.2609
  0
LINE
  8
0
 10
138.375
 20
-48.2609
 11
138.449
 21
-48.0322
  0
LINE
  8
0
 10
138.449
 20
-48.0322
 11
138.57
 21
-47.824
  0
LINE
  8
0
 10
138.57
 20
-47.824
 11
138.73
 21
-47.6454
  0
LINE
  8
0
 10
138.73
 20
-47.6454
 11
138.925
 21
-47.5041
  0
LINE
  8
0
 10
138.925
 20
-47.5041
 11
139.145
 21
-47.4063
  0
LINE
  8
0
 10
139.145
 20
-47.4063
 11
139.38
 21
-47.3563
  0
LINE
  8
0
 10
139.38
 20
-47.3563
 11
139.62
 21
-47.3563
  0
LINE
  8
0
 10
139.62
 20
-47.3563
 11
139.855
 21
-47.4063
  0
LINE
  8
0
 10
139.855
 20
-47.4063
 11
140.075
 21
-47.5041
  0
LINE
  8
0
 10
140.075
 20
-47.5041
 11
140.269
 21
-47.6454
  0
LINE
  8
0
 10
140.269
 20
-47.6454
 11
140.43
 21
-47.824
  0
LINE
  8
0
 10
140.43
 20
-47.824
 11
140.551
 21
-48.0322
  0
LINE
  8
0
 10
140.551
 20
-48.0322
 11
140.625
 21
-48.2609
  0
LINE
  8
0
 10
140.625
 20
-48.2609
 11
140.65
 21
-48.5
  0
LINE
  8
0
 10
140.65
 20
-48.5
 11
140.625
 21
-48.7391
  0
LINE
  8
0
 10
140.625
 20
-48.7391
 11
140.551
 21
-48.9677
  0
LINE
  8
0
 10
140.551
 20
-48.9677
 11
140.43
 21
-49.1759
  0
LINE
  8
0
 10
140.43
 20
-49.1759
 11
140.269
 21
-49.3546
  0
LINE
  8
0
 10
140.269
 20
-49.3546
 11
140.075
 21
-49.4959
  0
LINE
  8
0
 10
140.075
 20
-49.4959
 11
139.855
 21
-49.5937
  0
LINE
  8
0
 10
139.855
 20
-49.5937
 11
139.62
 21
-49.6437
  0
LINE
  8
0
 10
139.62
 20
-49.6437
 11
139.38
 21
-49.6437
  0
LINE
  8
0
 10
196.38
 20
-59.6437
 11
196.145
 21
-59.5937
  0
LINE
  8
0
 10
196.145
 20
-59.5937
 11
195.925
 21
-59.4959
  0
LINE
  8
0
 10
195.925
 20
-59.4959
 11
195.73
 21
-59.3546
  0
LINE
  8
0
 10
195.73
 20
-59.3546
 11
195.57
 21
-59.1759
  0
LINE
  8
0
 10
195.57
 20
-59.1759
 11
195.449
 21
-58.9677
  0
LINE
  8
0
 10
195.449
 20
-58.9677
 11
195.375
 21
-58.7391
  0
LINE
  8
0
 10
195.375
 20
-58.7391
 11
195.35
 21
-58.5
  0
LINE
  8
0
 10
195.35
 20
-58.5
 11
195.375
 21
-58.2609
  0
LINE
  8
0
 10
195.375
 20
-58.2609
 11
195.449
 21
-58.0322
  0
LINE
  8
0
 10
195.449
 20
-58.0322
 11
195.57
 21
-57.824
  0
LINE
  8
0
 10
195.57
 20
-57.824
 11
195.73
 21
-57.6454
  0
LINE
  8
0
 10
195.73
 20
-57.6454
 11
195.925
 21
-57.5041
  0
LINE
  8
0
 10
195.925
 20
-57.5041
 11
196.145
 21
-57.4063
  0
LINE
  8
0
 10
196.145
 20
-57.4063
 11
196.38
 21
-57.3563
  0
LINE
  8
0
 10
196.38
 20
-57.3563
 11
196.62
 21
-57.3563
  0
LINE
  8
0
 10
196.62
 20
-57.3563
 11
196.855
 21
-57.4063
  0
LINE
  8
0
 10
196.855
 20
-57.4063
 11
197.075
 21
-57.5041
  0
LINE
  8
0
 10
197.075
 20
-57.5041
 11
197.269
 21
-57.6454
  0
LINE
  8
0
 10
197.269
 20
-57.6454
 11
197.43
 21
-57.824
  0
LINE
  8
0
 10
197.43
 20
-57.824
 11
197.551
 21
-58.0322
  0
LINE
  8
0
 10
197.551
 20
-58.0322
 11
197.625
 21
-58.2609
  0
LINE
  8
0
 10
197.625
 20
-58.2609
 11
197.65
 21
-58.5
  0
LINE
  8
0
 10
197.65
 20
-58.5
 11
197.625
 21
-58.7391
  0
LINE
  8
0
 10
197.625
 20
-58.7391
 11
197.551
 21
-58.9677
  0
LINE
  8
0
 10
197.551
 20
-58.9677
 11
197.43
 21
-59.1759
  0
LINE
  8
0
 10
197.43
 20
-59.1759
 11
197.269
 21
-59.3546
  0
LINE
  8
0
 10
197.269
 20
-59.3546
 11
197.075
 21
-59.4959
  0
LINE
  8
0
 10
197.075
 20
-59.4959
 11
196.855
 21
-59.5937
  0
LINE
  8
0
 10
196.855
 20
-59.5937
 11
196.62
 21
-59.6437
  0
LINE
  8
0
 10
196.62
 20
-59.6437
 11
196.38
 21
-59.6437
  0
LINE
  8
0
 10
139.38
 20
-68.6437
 11
139.145
 21
-68.5937
  0
LINE
  8
0
 10
139.145
 20
-68.5937
 11
138.925
 21
-68.4959
  0
LINE
  8
0
 10
138.925
 20
-68.4959
 11
138.73
 21
-68.3546
  0
LINE
  8
0
 10
138.73
 20
-68.3546
 11
138.57
 21
-68.1759
  0
LINE
  8
0
 10
138.57
 20
-68.1759
 11
138.449
 21
-67.9677
  0
LINE
  8
0
 10
138.449
 20
-67.9677
 11
138.375
 21
-67.7391
  0
LINE
  8
0
 10
138.375
 20
-67.7391
 11
138.35
 21
-67.5
  0
LINE
  8
0
 10
138.35
 20
-67.5
 11
138.375
 21
-67.2609
  0
LINE
  8
0
 10
138.375
 20
-67.2609
 11
138.449
 21
-67.0322
  0
LINE
  8
0
 10
138.449
 20
-67.0322
 11
138.57
 21
-66.824
  0
LINE
  8
0
 10
138.57
 20
-66.824
 11
138.73
 21
-66.6454
  0
LINE
  8
0
 10
138.73
 20
-66.6454
 11
138.925
 21
-66.5041
  0
LINE
  8
0
 10
138.925
 20
-66.5041
 11
139.145
 21
-66.4063
  0
LINE
  8
0
 10
139.145
 20
-66.4063
 11
139.38
 21
-66.3563
  0
LINE
  8
0
 10
139.38
 20
-66.3563
 11
139.62
 21
-66.3563
  0
LINE
  8
0
 10
139.62
 20
-66.3563
 11
139.855
 21
-66.4063
  0
LINE
  8
0
 10
139.855
 20
-66.4063
 11
140.075
 21
-66.5041
  0
LINE
  8
0
 10
140.075
 20
-66.5041
 11
140.269
 21
-66.6454
  0
LINE
  8
0
 10
140.269
 20
-66.6454
 11
140.43
 21
-66.824
  0
LINE
  8
0
 10
140.43
 20
-66.824
 11
140.551
 21
-67.0322
  0
LINE
  8
0
 10
140.551
 20
-67.0322
 11
140.625
 21
-67.2609
  0
LINE
  8
0
 10
140.625
 20
-67.2609
 11
140.65
 21
-67.5
  0
LINE
  8
0
 10
140.65
 20
-67.5
 11
140.625
 21
-67.7391
  0
LINE
  8
0
 10
140.625
 20
-67.7391
 11
140.551
 21
-67.9677
  0
LINE
  8
0
 10
140.551
 20
-67.9677
 11
140.43
 21
-68.1759
  0
LINE
  8
0
 10
140.43
 20
-68.1759
 11
140.269
 21
-68.3546
  0
LINE
  8
0
 10
140.269
 20
-68.3546
 11
140.075
 21
-68.4959
  0
LINE
  8
0
 10
140.075
 20
-68.4959
 11
139.855
 21
-68.5937
  0
LINE
  8
0
 10
139.855
 20
-68.5937
 11
139.62
 21
-68.6437
  0
LINE
  8
0
 10
139.62
 20
-68.6437
 11
139.38
 21
-68.6437
  0
LINE
  8
0
 10
213.38
 20
-92.6437
 11
213.145
 21
-92.5937
  0
LINE
  8
0
 10
213.145
 20
-92.5937
 11
212.925
 21
-92.4959
  0
LINE
  8
0
 10
212.925
 20
-92.4959
 11
212.73
 21
-92.3546
  0
LINE
  8
0
 10
212.73
 20
-92.3546
 11
212.57
 21
-92.1759
  0
LINE
  8
0
 10
212.57
 20
-92.1759
 11
212.449
 21
-91.9677
  0
LINE
  8
0
 10
212.449
 20
-91.9677
 11
212.375
 21
-91.7391
  0
LINE
  8
0
 10
212.375
 20
-91.7391
 11
212.35
 21
-91.5
  0
LINE
  8
0
 10
212.35
 20
-91.5
 11
212.375
 21
-91.2609
  0
LINE
  8
0
 10
212.375
 20
-91.2609
 11
212.449
 21
-91.0322
  0
LINE
  8
0
 10
212.449
 20
-91.0322
 11
212.57
 21
-90.824
  0
LINE
  8
0
 10
212.57
 20
-90.824
 11
212.73
 21
-90.6454
  0
LINE
  8
0
 10
212.73
 20
-90.6454
 11
212.925
 21
-90.5041
  0
LINE
  8
0
 10
212.925
 20
-90.5041
 11
213.145
 21
-90.4063
  0
LINE
  8
0
 10
213.145
 20
-90.4063
 11
213.38
 21
-90.3563
  0
LINE
  8
0
 10
213.38
 20
-90.3563
 11
213.62
 21
-90.3563
  0
LINE
  8
0
 10
213.62
 20
-90.3563
 11
213.855
 21
-90.4063
  0
LINE
  8
0
 10
213.855
 20
-90.4063
 11
214.075
 21
-90.5041
  0
LINE
  8
0
 10
214.075
 20
-90.5041
 11
214.269
 21
-90.6454
  0
LINE
  8
0
 10
214.269
 20
-90.6454
 11
214.43
 21
-90.824
  0
LINE
  8
0
 10
214.43
 20
-90.824
 11
214.551
 21
-91.0322
  0
LINE
  8
0
 10
214.551
 20
-91.0322
 11
214.625
 21
-91.2609
  0
LINE
  8
0
 10
214.625
 20
-91.2609
 11
214.65
 21
-91.5
  0
LINE
  8
0
 10
214.65
 20
-91.5
 11
214.625
 21
-91.7391
  0
LINE
  8
0
 10
214.625
 20
-91.7391
 11
214.551
 21
-91.9677
  0
LINE
  8
0
 10
214.551
 20
-91.9677
 11
214.43
 21
-92.1759
  0
LINE
  8
0
 10
214.43
 20
-92.1759
 11
214.269
 21
-92.3546
  0
LINE
  8
0
 10
214.269
 20
-92.3546
 11
214.075
 21
-92.4959
  0
LINE
  8
0
 10
214.075
 20
-92.4959
 11
213.855
 21
-92.5937
  0
LINE
  8
0
 10
213.855
 20
-92.5937
 11
213.62
 21
-92.6437
  0
LINE
  8
0
 10
213.62
 20
-92.6437
 11
213.38
 21
-92.6437
  0
LINE
  8
0
 10
123.255
 20
-135.524
 11
141.905
 21
-130.525
  0
LINE
  8
0
 10
141.905
 20
-130.525
 11
141.911
 21
-130.523
  0
LINE
  8
0
 10
141.911
 20
-130.523
 11
141.914
 21
-130.521
  0
LINE
  8
0
 10
141.914
 20
-130.521
 11
141.916
 21
-130.519
  0
LINE
  8
0
 10
141.916
 20
-130.519
 11
141.919
 21
-130.517
  0
LINE
  8
0
 10
141.919
 20
-130.517
 11
141.92
 21
-130.515
  0
LINE
  8
0
 10
141.92
 20
-130.515
 11
141.922
 21
-130.513
  0
LINE
  8
0
 10
141.922
 20
-130.513
 11
141.923
 21
-130.51
  0
LINE
  8
0
 10
141.923
 20
-130.51
 11
141.924
 21
-130.508
  0
LINE
  8
0
 10
141.924
 20
-130.508
 11
141.924
 21
-130.506
  0
LINE
  8
0
 10
141.924
 20
-130.506
 11
141.925
 21
-130.504
  0
LINE
  8
0
 10
141.925
 20
-130.504
 11
141.925
 21
-114.653
  0
LINE
  8
0
 10
141.925
 20
-114.653
 11
116
 21
-87
  0
LINE
  8
0
 10
116
 20
-87
 11
116
 21
-20.9718
  0
LINE
  8
0
 10
116
 20
-20.9718
 11
114.207
 21
-20.1094
  0
LINE
  8
0
 10
114.207
 20
-20.1094
 11
110.646
 21
-18.5264
  0
LINE
  8
0
 10
110.646
 20
-18.5264
 11
107.025
 21
-17.0869
  0
LINE
  8
0
 10
107.025
 20
-17.0869
 11
103.349
 21
-15.7949
  0
LINE
  8
0
 10
103.349
 20
-15.7949
 11
99.625
 21
-14.6514
  0
LINE
  8
0
 10
99.625
 20
-14.6514
 11
95.8564
 21
-13.6582
  0
LINE
  8
0
 10
95.8564
 20
-13.6582
 11
92.0527
 21
-12.8164
  0
LINE
  8
0
 10
92.0527
 20
-12.8164
 11
88.2168
 21
-12.1289
  0
LINE
  8
0
 10
88.2168
 20
-12.1289
 11
84.3574
 21
-11.5957
  0
LINE
  8
0
 10
84.3574
 20
-11.5957
 11
80.4795
 21
-11.2168
  0
LINE
  8
0
 10
80.4795
 20
-11.2168
 11
76.5889
 21
-10.9951
  0
LINE
  8
0
 10
76.5889
 20
-10.9951
 11
72.6934
 21
-10.9287
  0
LINE
  8
0
 10
72.6934
 20
-10.9287
 11
68.7979
 21
-11.0195
  0
LINE
  8
0
 10
68.7979
 20
-11.0195
 11
64.9092
 21
-11.2666
  0
LINE
  8
0
 10
64.9092
 20
-11.2666
 11
61.0342
 21
-11.6689
  0
LINE
  8
0
 10
61.0342
 20
-11.6689
 11
57.1777
 21
-12.2266
  0
LINE
  8
0
 10
57.1777
 20
-12.2266
 11
53.3467
 21
-12.9395
  0
LINE
  8
0
 10
53.3467
 20
-12.9395
 11
49.5479
 21
-13.8047
  0
LINE
  8
0
 10
49.5479
 20
-13.8047
 11
45.7861
 21
-14.8213
  0
LINE
  8
0
 10
45.7861
 20
-14.8213
 11
42.0684
 21
-15.9883
  0
LINE
  8
0
 10
42.0684
 20
-15.9883
 11
38.4014
 21
-17.3037
  0
LINE
  8
0
 10
38.4014
 20
-17.3037
 11
34.7891
 21
-18.7656
  0
LINE
  8
0
 10
34.7891
 20
-18.7656
 11
31.2393
 21
-20.3711
  0
LINE
  8
0
 10
31.2393
 20
-20.3711
 11
27.7559
 21
-22.1172
  0
LINE
  8
0
 10
27.7559
 20
-22.1172
 11
24.3457
 21
-24.002
  0
LINE
  8
0
 10
24.3457
 20
-24.002
 11
21.0137
 21
-26.0225
  0
LINE
  8
0
 10
21.0137
 20
-26.0225
 11
21.0117
 21
-26.0244
  0
LINE
  8
0
 10
21.0117
 20
-26.0244
 11
21.0098
 21
-26.0254
  0
LINE
  8
0
 10
21.0098
 20
-26.0254
 11
21.0088
 21
-26.0273
  0
LINE
  8
0
 10
21.0088
 20
-26.0273
 11
20.8555
 21
-26.2021
  0
LINE
  8
0
 10
20.8555
 20
-26.2021
 11
20.8535
 21
-26.2051
  0
LINE
  8
0
 10
20.8535
 20
-26.2051
 11
20.3438
 21
-26.9365
  0
LINE
  8
0
 10
20.3438
 20
-26.9365
 11
20.3408
 21
-26.9404
  0
LINE
  8
0
 10
20.3408
 20
-26.9404
 11
19.9658
 21
-27.75
  0
LINE
  8
0
 10
19.9658
 20
-27.75
 11
19.9639
 21
-27.7549
  0
LINE
  8
0
 10
19.9639
 20
-27.7549
 11
19.9746
 21
-84.501
  0
LINE
  8
0
 10
19.9746
 20
-84.501
 11
19.9756
 21
-84.5186
  0
LINE
  8
0
 10
19.9756
 20
-84.5186
 11
19.9756
 21
-84.5205
  0
LINE
  8
0
 10
19.9756
 20
-84.5205
 11
20.0264
 21
-85.0049
  0
LINE
  8
0
 10
20.0264
 20
-85.0049
 11
20.0264
 21
-85.0078
  0
LINE
  8
0
 10
20.0264
 20
-85.0078
 11
20.0273
 21
-85.0098
  0
LINE
  8
0
 10
20.0273
 20
-85.0098
 11
20.1719
 21
-85.4766
  0
LINE
  8
0
 10
20.1719
 20
-85.4766
 11
20.1719
 21
-85.4785
  0
LINE
  8
0
 10
20.1719
 20
-85.4785
 11
20.1738
 21
-85.4805
  0
LINE
  8
0
 10
20.1738
 20
-85.4805
 11
20.4053
 21
-85.9102
  0
LINE
  8
0
 10
20.4053
 20
-85.9102
 11
20.4062
 21
-85.9121
  0
LINE
  8
0
 10
20.4062
 20
-85.9121
 11
20.4082
 21
-85.9141
  0
LINE
  8
0
 10
20.4082
 20
-85.9141
 11
20.7188
 21
-86.29
  0
LINE
  8
0
 10
20.7188
 20
-86.29
 11
20.7207
 21
-86.291
  0
LINE
  8
0
 10
20.7207
 20
-86.291
 11
20.7227
 21
-86.293
  0
LINE
  8
0
 10
20.7227
 20
-86.293
 11
21.1006
 21
-86.6016
  0
LINE
  8
0
 10
21.1006
 20
-86.6016
 11
21.1025
 21
-86.6025
  0
LINE
  8
0
 10
21.1025
 20
-86.6025
 11
21.1045
 21
-86.6045
  0
LINE
  8
0
 10
21.1045
 20
-86.6045
 11
21.5352
 21
-86.833
  0
LINE
  8
0
 10
21.5352
 20
-86.833
 11
21.5381
 21
-86.834
  0
LINE
  8
0
 10
21.5381
 20
-86.834
 11
21.54
 21
-86.835
  0
LINE
  8
0
 10
21.54
 20
-86.835
 11
22.0068
 21
-86.9766
  0
LINE
  8
0
 10
22.0068
 20
-86.9766
 11
22.0098
 21
-86.9766
  0
LINE
  8
0
 10
22.0098
 20
-86.9766
 11
22.0117
 21
-86.9775
  0
LINE
  8
0
 10
22.0117
 20
-86.9775
 11
22.499
 21
-87.0254
  0
LINE
  8
0
 10
22.499
 20
-87.0254
 11
66.999
 21
-87.0254
  0
LINE
  8
0
 10
66.999
 20
-87.0254
 11
67.2861
 21
-87.0527
  0
LINE
  8
0
 10
67.2861
 20
-87.0527
 11
67.5615
 21
-87.1367
  0
LINE
  8
0
 10
67.5615
 20
-87.1367
 11
67.8164
 21
-87.2715
  0
LINE
  8
0
 10
67.8164
 20
-87.2715
 11
68.0391
 21
-87.4531
  0
LINE
  8
0
 10
68.0391
 20
-87.4531
 11
68.2227
 21
-87.6758
  0
LINE
  8
0
 10
68.2227
 20
-87.6758
 11
68.3594
 21
-87.9287
  0
LINE
  8
0
 10
68.3594
 20
-87.9287
 11
68.4443
 21
-88.2031
  0
LINE
  8
0
 10
68.4443
 20
-88.2031
 11
68.4746
 21
-88.4912
  0
LINE
  8
0
 10
68.4746
 20
-88.4912
 11
68.4746
 21
-93.3213
  0
LINE
  8
0
 10
68.4746
 20
-93.3213
 11
68.4756
 21
-93.3242
  0
LINE
  8
0
 10
68.4756
 20
-93.3242
 11
68.5059
 21
-93.6152
  0
LINE
  8
0
 10
68.5059
 20
-93.6152
 11
68.5059
 21
-93.6172
  0
LINE
  8
0
 10
68.5059
 20
-93.6172
 11
68.5068
 21
-93.6201
  0
LINE
  8
0
 10
68.5068
 20
-93.6201
 11
68.5938
 21
-93.8994
  0
LINE
  8
0
 10
68.5938
 20
-93.8994
 11
68.5938
 21
-93.9023
  0
LINE
  8
0
 10
68.5938
 20
-93.9023
 11
68.5947
 21
-93.9043
  0
LINE
  8
0
 10
68.5947
 20
-93.9043
 11
68.7344
 21
-94.1621
  0
LINE
  8
0
 10
68.7344
 20
-94.1621
 11
68.7354
 21
-94.1641
  0
LINE
  8
0
 10
68.7354
 20
-94.1641
 11
68.7373
 21
-94.166
  0
LINE
  8
0
 10
68.7373
 20
-94.166
 11
68.9238
 21
-94.3916
  0
LINE
  8
0
 10
68.9238
 20
-94.3916
 11
68.9258
 21
-94.3926
  0
LINE
  8
0
 10
68.9258
 20
-94.3926
 11
68.9268
 21
-94.3945
  0
LINE
  8
0
 10
68.9268
 20
-94.3945
 11
69.1543
 21
-94.5801
  0
LINE
  8
0
 10
69.1543
 20
-94.5801
 11
69.1562
 21
-94.5811
  0
LINE
  8
0
 10
69.1562
 20
-94.5811
 11
69.1582
 21
-94.583
  0
LINE
  8
0
 10
69.1582
 20
-94.583
 11
69.417
 21
-94.7197
  0
LINE
  8
0
 10
69.417
 20
-94.7197
 11
69.4209
 21
-94.7217
  0
LINE
  8
0
 10
69.4209
 20
-94.7217
 11
69.7012
 21
-94.8066
  0
LINE
  8
0
 10
69.7012
 20
-94.8066
 11
69.7031
 21
-94.8066
  0
LINE
  8
0
 10
69.7031
 20
-94.8066
 11
69.7061
 21
-94.8076
  0
LINE
  8
0
 10
69.7061
 20
-94.8076
 11
69.999
 21
-94.8359
  0
LINE
  8
0
 10
69.999
 20
-94.8359
 11
72.8867
 21
-94.9121
  0
LINE
  8
0
 10
72.8867
 20
-94.9121
 11
75.7666
 21
-95.1387
  0
LINE
  8
0
 10
75.7666
 20
-95.1387
 11
78.6299
 21
-95.5156
  0
LINE
  8
0
 10
78.6299
 20
-95.5156
 11
81.4688
 21
-96.042
  0
LINE
  8
0
 10
81.4688
 20
-96.042
 11
84.2773
 21
-96.7158
  0
LINE
  8
0
 10
84.2773
 20
-96.7158
 11
87.0469
 21
-97.5361
  0
LINE
  8
0
 10
87.0469
 20
-97.5361
 11
89.7686
 21
-98.5
  0
LINE
  8
0
 10
89.7686
 20
-98.5
 11
92.4375
 21
-99.6055
  0
LINE
  8
0
 10
92.4375
 20
-99.6055
 11
95.0439
 21
-100.849
  0
LINE
  8
0
 10
95.0439
 20
-100.849
 11
97.582
 21
-102.227
  0
LINE
  8
0
 10
97.582
 20
-102.227
 11
100.044
 21
-103.736
  0
LINE
  8
0
 10
100.044
 20
-103.736
 11
102.425
 21
-105.371
  0
LINE
  8
0
 10
102.425
 20
-105.371
 11
104.716
 21
-107.13
  0
LINE
  8
0
 10
104.716
 20
-107.13
 11
106.912
 21
-109.005
  0
LINE
  8
0
 10
106.912
 20
-109.005
 11
109.007
 21
-110.993
  0
LINE
  8
0
 10
109.007
 20
-110.993
 11
110.995
 21
-113.088
  0
LINE
  8
0
 10
110.995
 20
-113.088
 11
112.87
 21
-115.284
  0
LINE
  8
0
 10
112.87
 20
-115.284
 11
114.629
 21
-117.575
  0
LINE
  8
0
 10
114.629
 20
-117.575
 11
116.264
 21
-119.956
  0
LINE
  8
0
 10
116.264
 20
-119.956
 11
117.773
 21
-122.418
  0
LINE
  8
0
 10
117.773
 20
-122.418
 11
119.151
 21
-124.956
  0
LINE
  8
0
 10
119.151
 20
-124.956
 11
120.395
 21
-127.563
  0
LINE
  8
0
 10
120.395
 20
-127.563
 11
121.5
 21
-130.231
  0
LINE
  8
0
 10
121.5
 20
-130.231
 11
122.464
 21
-132.953
  0
LINE
  8
0
 10
122.464
 20
-132.953
 11
123.226
 21
-135.507
  0
LINE
  8
0
 10
123.226
 20
-135.507
 11
123.227
 21
-135.511
  0
LINE
  8
0
 10
123.227
 20
-135.511
 11
123.232
 21
-135.517
  0
LINE
  8
0
 10
123.232
 20
-135.517
 11
123.233
 21
-135.519
  0
LINE
  8
0
 10
123.233
 20
-135.519
 11
123.237
 21
-135.522
  0
LINE
  8
0
 10
123.237
 20
-135.522
 11
123.242
 21
-135.524
  0
LINE
  8
0
 10
123.242
 20
-135.524
 11
123.244
 21
-135.524
  0
LINE
  8
0
 10
123.244
 20
-135.524
 11
123.247
 21
-135.525
  0
LINE
  8
0
 10
123.247
 20
-135.525
 11
123.252
 21
-135.525
  0
LINE
  8
0
 10
123.252
 20
-135.525
 11
123.255
 21
-135.524
  0
LINE
  8
0
 10
61
 20
-28
 11
61
 21
-14
  0
LINE
  8
0
 10
61
 20
-14
 11
75
 21
-14
  0
LINE
  8
0
 10
75
 20
-14
 11
75
 21
-28
  0
LINE
  8
0
 10
75
 20
-28
 11
61
 21
-28
  0
LINE
  8
0
 10
42
 20
-34
 11
42
 21
-20
  0
LINE
  8
0
 10
42
 20
-20
 11
56
 21
-20
  0
LINE
  8
0
 10
56
 20
-20
 11
56
 21
-34
  0
LINE
  8
0
 10
56
 20
-34
 11
42
 21
-34
  0
LINE
  8
0
 10
80
 20
-35
 11
80
 21
-21
  0
LINE
  8
0
 10
80
 20
-21
 11
94
 21
-21
  0
LINE
  8
0
 10
94
 20
-21
 11
94
 21
-35
  0
LINE
  8
0
 10
94
 20
-35
 11
80
 21
-35
  0
LINE
  8
0
 10
99
 20
-37
 11
99
 21
-23
  0
LINE
  8
0
 10
99
 20
-23
 11
113
 21
-23
  0
LINE
  8
0
 10
113
 20
-23
 11
113
 21
-37
  0
LINE
  8
0
 10
113
 20
-37
 11
99
 21
-37
  0
LINE
  8
0
 10
23
 20
-46
 11
23
 21
-32
  0
LINE
  8
0
 10
23
 20
-32
 11
37
 21
-32
  0
LINE
  8
0
 10
37
 20
-32
 11
37
 21
-46
  0
LINE
  8
0
 10
37
 20
-46
 11
23
 21
-46
  0
LINE
  8
0
 10
61
 20
-47
 11
61
 21
-33
  0
LINE
  8
0
 10
61
 20
-33
 11
75
 21
-33
  0
LINE
  8
0
 10
75
 20
-33
 11
75
 21
-47
  0
LINE
  8
0
 10
75
 20
-47
 11
61
 21
-47
  0
LINE
  8
0
 10
96.3798
 20
-40.6437
 11
96.1446
 21
-40.5937
  0
LINE
  8
0
 10
96.1446
 20
-40.5937
 11
95.925
 21
-40.4959
  0
LINE
  8
0
 10
95.925
 20
-40.4959
 11
95.7305
 21
-40.3546
  0
LINE
  8
0
 10
95.7305
 20
-40.3546
 11
95.5696
 21
-40.1759
  0
LINE
  8
0
 10
95.5696
 20
-40.1759
 11
95.4494
 21
-39.9677
  0
LINE
  8
0
 10
95.4494
 20
-39.9677
 11
95.3751
 21
-39.7391
  0
LINE
  8
0
 10
95.3751
 20
-39.7391
 11
95.35
 21
-39.5
  0
LINE
  8
0
 10
95.35
 20
-39.5
 11
95.3751
 21
-39.2609
  0
LINE
  8
0
 10
95.3751
 20
-39.2609
 11
95.4494
 21
-39.0322
  0
LINE
  8
0
 10
95.4494
 20
-39.0322
 11
95.5696
 21
-38.824
  0
LINE
  8
0
 10
95.5696
 20
-38.824
 11
95.7305
 21
-38.6454
  0
LINE
  8
0
 10
95.7305
 20
-38.6454
 11
95.925
 21
-38.5041
  0
LINE
  8
0
 10
95.925
 20
-38.5041
 11
96.1446
 21
-38.4063
  0
LINE
  8
0
 10
96.1446
 20
-38.4063
 11
96.3798
 21
-38.3563
  0
LINE
  8
0
 10
96.3798
 20
-38.3563
 11
96.6202
 21
-38.3563
  0
LINE
  8
0
 10
96.6202
 20
-38.3563
 11
96.8554
 21
-38.4063
  0
LINE
  8
0
 10
96.8554
 20
-38.4063
 11
97.075
 21
-38.5041
  0
LINE
  8
0
 10
97.075
 20
-38.5041
 11
97.2695
 21
-38.6454
  0
LINE
  8
0
 10
97.2695
 20
-38.6454
 11
97.4304
 21
-38.824
  0
LINE
  8
0
 10
97.4304
 20
-38.824
 11
97.5506
 21
-39.0322
  0
LINE
  8
0
 10
97.5506
 20
-39.0322
 11
97.6249
 21
-39.2609
  0
LINE
  8
0
 10
97.6249
 20
-39.2609
 11
97.65
 21
-39.5
  0
LINE
  8
0
 10
97.65
 20
-39.5
 11
97.6249
 21
-39.7391
  0
LINE
  8
0
 10
97.6249
 20
-39.7391
 11
97.5506
 21
-39.9677
  0
LINE
  8
0
 10
97.5506
 20
-39.9677
 11
97.4304
 21
-40.1759
  0
LINE
  8
0
 10
97.4304
 20
-40.1759
 11
97.2695
 21
-40.3546
  0
LINE
  8
0
 10
97.2695
 20
-40.3546
 11
97.075
 21
-40.4959
  0
LINE
  8
0
 10
97.075
 20
-40.4959
 11
96.8554
 21
-40.5937
  0
LINE
  8
0
 10
96.8554
 20
-40.5937
 11
96.6202
 21
-40.6437
  0
LINE
  8
0
 10
96.6202
 20
-40.6437
 11
96.3798
 21
-40.6437
  0
LINE
  8
0
 10
42
 20
-53
 11
42
 21
-39
  0
LINE
  8
0
 10
42
 20
-39
 11
56
 21
-39
  0
LINE
  8
0
 10
56
 20
-39
 11
56
 21
-53
  0
LINE
  8
0
 10
56
 20
-53
 11
42
 21
-53
  0
LINE
  8
0
 10
80
 20
-54
 11
80
 21
-40
  0
LINE
  8
0
 10
80
 20
-40
 11
94
 21
-40
  0
LINE
  8
0
 10
94
 20
-40
 11
94
 21
-54
  0
LINE
  8
0
 10
94
 20
-54
 11
80
 21
-54
  0
LINE
  8
0
 10
99
 20
-56
 11
99
 21
-42
  0
LINE
  8
0
 10
99
 20
-42
 11
113
 21
-42
  0
LINE
  8
0
 10
113
 20
-42
 11
113
 21
-56
  0
LINE
  8
0
 10
113
 20
-56
 11
99
 21
-56
  0
LINE
  8
0
 10
39.3798
 20
-49.6437
 11
39.1446
 21
-49.5937
  0
LINE
  8
0
 10
39.1446
 20
-49.5937
 11
38.925
 21
-49.4959
  0
LINE
  8
0
 10
38.925
 20
-49.4959
 11
38.7305
 21
-49.3546
  0
LINE
  8
0
 10
38.7305
 20
-49.3546
 11
38.5696
 21
-49.1759
  0
LINE
  8
0
 10
38.5696
 20
-49.1759
 11
38.4494
 21
-48.9677
  0
LINE
  8
0
 10
38.4494
 20
-48.9677
 11
38.3751
 21
-48.7391
  0
LINE
  8
0
 10
38.3751
 20
-48.7391
 11
38.35
 21
-48.5
  0
LINE
  8
0
 10
38.35
 20
-48.5
 11
38.3751
 21
-48.2609
  0
LINE
  8
0
 10
38.3751
 20
-48.2609
 11
38.4494
 21
-48.0322
  0
LINE
  8
0
 10
38.4494
 20
-48.0322
 11
38.5696
 21
-47.824
  0
LINE
  8
0
 10
38.5696
 20
-47.824
 11
38.7305
 21
-47.6454
  0
LINE
  8
0
 10
38.7305
 20
-47.6454
 11
38.925
 21
-47.5041
  0
LINE
  8
0
 10
38.925
 20
-47.5041
 11
39.1446
 21
-47.4063
  0
LINE
  8
0
 10
39.1446
 20
-47.4063
 11
39.3798
 21
-47.3563
  0
LINE
  8
0
 10
39.3798
 20
-47.3563
 11
39.6202
 21
-47.3563
  0
LINE
  8
0
 10
39.6202
 20
-47.3563
 11
39.8554
 21
-47.4063
  0
LINE
  8
0
 10
39.8554
 20
-47.4063
 11
40.075
 21
-47.5041
  0
LINE
  8
0
 10
40.075
 20
-47.5041
 11
40.2695
 21
-47.6454
  0
LINE
  8
0
 10
40.2695
 20
-47.6454
 11
40.4304
 21
-47.824
  0
LINE
  8
0
 10
40.4304
 20
-47.824
 11
40.5506
 21
-48.0322
  0
LINE
  8
0
 10
40.5506
 20
-48.0322
 11
40.6249
 21
-48.2609
  0
LINE
  8
0
 10
40.6249
 20
-48.2609
 11
40.65
 21
-48.5
  0
LINE
  8
0
 10
40.65
 20
-48.5
 11
40.6249
 21
-48.7391
  0
LINE
  8
0
 10
40.6249
 20
-48.7391
 11
40.5506
 21
-48.9677
  0
LINE
  8
0
 10
40.5506
 20
-48.9677
 11
40.4304
 21
-49.1759
  0
LINE
  8
0
 10
40.4304
 20
-49.1759
 11
40.2695
 21
-49.3546
  0
LINE
  8
0
 10
40.2695
 20
-49.3546
 11
40.075
 21
-49.4959
  0
LINE
  8
0
 10
40.075
 20
-49.4959
 11
39.8554
 21
-49.5937
  0
LINE
  8
0
 10
39.8554
 20
-49.5937
 11
39.6202
 21
-49.6437
  0
LINE
  8
0
 10
39.6202
 20
-49.6437
 11
39.3798
 21
-49.6437
  0
LINE
  8
0
 10
23
 20
-65
 11
23
 21
-51
  0
LINE
  8
0
 10
23
 20
-51
 11
37
 21
-51
  0
LINE
  8
0
 10
37
 20
-51
 11
37
 21
-65
  0
LINE
  8
0
 10
37
 20
-65
 11
23
 21
-65
  0
LINE
  8
0
 10
61
 20
-66
 11
61
 21
-52
  0
LINE
  8
0
 10
61
 20
-52
 11
75
 21
-52
  0
LINE
  8
0
 10
75
 20
-52
 11
75
 21
-66
  0
LINE
  8
0
 10
75
 20
-66
 11
61
 21
-66
  0
LINE
  8
0
 10
96.3798
 20
-59.6437
 11
96.1446
 21
-59.5937
  0
LINE
  8
0
 10
96.1446
 20
-59.5937
 11
95.925
 21
-59.4959
  0
LINE
  8
0
 10
95.925
 20
-59.4959
 11
95.7305
 21
-59.3546
  0
LINE
  8
0
 10
95.7305
 20
-59.3546
 11
95.5696
 21
-59.1759
  0
LINE
  8
0
 10
95.5696
 20
-59.1759
 11
95.4494
 21
-58.9677
  0
LINE
  8
0
 10
95.4494
 20
-58.9677
 11
95.3751
 21
-58.7391
  0
LINE
  8
0
 10
95.3751
 20
-58.7391
 11
95.35
 21
-58.5
  0
LINE
  8
0
 10
95.35
 20
-58.5
 11
95.3751
 21
-58.2609
  0
LINE
  8
0
 10
95.3751
 20
-58.2609
 11
95.4494
 21
-58.0322
  0
LINE
  8
0
 10
95.4494
 20
-58.0322
 11
95.5696
 21
-57.824
  0
LINE
  8
0
 10
95.5696
 20
-57.824
 11
95.7305
 21
-57.6454
  0
LINE
  8
0
 10
95.7305
 20
-57.6454
 11
95.925
 21
-57.5041
  0
LINE
  8
0
 10
95.925
 20
-57.5041
 11
96.1446
 21
-57.4063
  0
LINE
  8
0
 10
96.1446
 20
-57.4063
 11
96.3798
 21
-57.3563
  0
LINE
  8
0
 10
96.3798
 20
-57.3563
 11
96.6202
 21
-57.3563
  0
LINE
  8
0
 10
96.6202
 20
-57.3563
 11
96.8554
 21
-57.4063
  0
LINE
  8
0
 10
96.8554
 20
-57.4063
 11
97.075
 21
-57.5041
  0
LINE
  8
0
 10
97.075
 20
-57.5041
 11
97.2695
 21
-57.6454
  0
LINE
  8
0
 10
97.2695
 20
-57.6454
 11
97.4304
 21
-57.824
  0
LINE
  8
0
 10
97.4304
 20
-57.824
 11
97.5506
 21
-58.0322
  0
LINE
  8
0
 10
97.5506
 20
-58.0322
 11
97.6249
 21
-58.2609
  0
LINE
  8
0
 10
97.6249
 20
-58.2609
 11
97.65
 21
-58.5
  0
LINE
  8
0
 10
97.65
 20
-58.5
 11
97.6249
 21
-58.7391
  0
LINE
  8
0
 10
97.6249
 20
-58.7391
 11
97.5506
 21
-58.9677
  0
LINE
  8
0
 10
97.5506
 20
-58.9677
 11
97.4304
 21
-59.1759
  0
LINE
  8
0
 10
97.4304
 20
-59.1759
 11
97.2695
 21
-59.3546
  0
LINE
  8
0
 10
97.2695
 20
-59.3546
 11
97.075
 21
-59.4959
  0
LINE
  8
0
 10
97.075
 20
-59.4959
 11
96.8554
 21
-59.5937
  0
LINE
  8
0
 10
96.8554
 20
-59.5937
 11
96.6202
 21
-59.6437
  0
LINE
  8
0
 10
96.6202
 20
-59.6437
 11
96.3798
 21
-59.6437
  0
LINE
  8
0
 10
42
 20
-72
 11
42
 21
-58
  0
LINE
  8
0
 10
42
 20
-58
 11
56
 21
-58
  0
LINE
  8
0
 10
56
 20
-58
 11
56
 21
-72
  0
LINE
  8
0
 10
56
 20
-72
 11
42
 21
-72
  0
LINE
  8
0
 10
80
 20
-73
 11
80
 21
-59
  0
LINE
  8
0
 10
80
 20
-59
 11
94
 21
-59
  0
LINE
  8
0
 10
94
 20
-59
 11
94
 21
-73
  0
LINE
  8
0
 10
94
 20
-73
 11
80
 21
-73
  0
LINE
  8
0
 10
99
 20
-75
 11
99
 21
-61
  0
LINE
  8
0
 10
99
 20
-61
 11
113
 21
-61
  0
LINE
  8
0
 10
113
 20
-61
 11
113
 21
-75
  0
LINE
  8
0
 10
113
 20
-75
 11
99
 21
-75
  0
LINE
  8
0
 10
39.3798
 20
-68.6437
 11
39.1446
 21
-68.5937
  0
LINE
  8
0
 10
39.1446
 20
-68.5937
 11
38.925
 21
-68.4959
  0
LINE
  8
0
 10
38.925
 20
-68.4959
 11
38.7305
 21
-68.3546
  0
LINE
  8
0
 10
38.7305
 20
-68.3546
 11
38.5696
 21
-68.1759
  0
LINE
  8
0
 10
38.5696
 20
-68.1759
 11
38.4494
 21
-67.9677
  0
LINE
  8
0
 10
38.4494
 20
-67.9677
 11
38.3751
 21
-67.7391
  0
LINE
  8
0
 10
38.3751
 20
-67.7391
 11
38.35
 21
-67.5
  0
LINE
  8
0
 10
38.35
 20
-67.5
 11
38.3751
 21
-67.2609
  0
LINE
  8
0
 10
38.3751
 20
-67.2609
 11
38.4494
 21
-67.0322
  0
LINE
  8
0
 10
38.4494
 20
-67.0322
 11
38.5696
 21
-66.824
  0
LINE
  8
0
 10
38.5696
 20
-66.824
 11
38.7305
 21
-66.6454
  0
LINE
  8
0
 10
38.7305
 20
-66.6454
 11
38.925
 21
-66.5041
  0
LINE
  8
0
 10
38.925
 20
-66.5041
 11
39.1446
 21
-66.4063
  0
LINE
  8
0
 10
39.1446
 20
-66.4063
 11
39.3798
 21
-66.3563
  0
LINE
  8
0
 10
39.3798
 20
-66.3563
 11
39.6202
 21
-66.3563
  0
LINE
  8
0
 10
39.6202
 20
-66.3563
 11
39.8554
 21
-66.4063
  0
LINE
  8
0
 10
39.8554
 20
-66.4063
 11
40.075
 21
-66.5041
  0
LINE
  8
0
 10
40.075
 20
-66.5041
 11
40.2695
 21
-66.6454
  0
LINE
  8
0
 10
40.2695
 20
-66.6454
 11
40.4304
 21
-66.824
  0
LINE
  8
0
 10
40.4304
 20
-66.824
 11
40.5506
 21
-67.0322
  0
LINE
  8
0
 10
40.5506
 20
-67.0322
 11
40.6249
 21
-67.2609
  0
LINE
  8
0
 10
40.6249
 20
-67.2609
 11
40.65
 21
-67.5
  0
LINE
  8
0
 10
40.65
 20
-67.5
 11
40.6249
 21
-67.7391
  0
LINE
  8
0
 10
40.6249
 20
-67.7391
 11
40.5506
 21
-67.9677
  0
LINE
  8
0
 10
40.5506
 20
-67.9677
 11
40.4304
 21
-68.1759
  0
LINE
  8
0
 10
40.4304
 20
-68.1759
 11
40.2695
 21
-68.3546
  0
LINE
  8
0
 10
40.2695
 20
-68.3546
 11
40.075
 21
-68.4959
  0
LINE
  8
0
 10
40.075
 20
-68.4959
 11
39.8554
 21
-68.5937
  0
LINE
  8
0
 10
39.8554
 20
-68.5937
 11
39.6202
 21
-68.6437
  0
LINE
  8
0
 10
39.6202
 20
-68.6437
 11
39.3798
 21
-68.6437
  0
LINE
  8
0
 10
23
 20
-84
 11
23
 21
-70
  0
LINE
  8
0
 10
23
 20
-70
 11
37
 21
-70
  0
LINE
  8
0
 10
37
 20
-70
 11
37
 21
-84
  0
LINE
  8
0
 10
37
 20
-84
 11
23
 21
-84
  0
LINE
  8
0
 10
71.4
 20
-92
 11
71.4
 21
-78
  0
LINE
  8
0
 10
71.4
 20
-78
 11
85.4
 21
-78
  0
LINE
  8
0
 10
85.4
 20
-78
 11
85.4
 21
-92
  0
LINE
  8
0
 10
85.4
 20
-92
 11
71.4
 21
-92
  0
LINE
  8
0
 10
91.3566
 20
-93.4248
 11
97.6252
 21
-80.9066
  0
LINE
  8
0
 10
97.6252
 20
-80.9066
 11
110.143
 21
-87.1752
  0
LINE
  8
0
 10
110.143
 20
-87.1752
 11
103.875
 21
-99.6934
  0
LINE
  8
0
 10
103.875
 20
-99.6934
 11
91.3566
 21
-93.4248
  0
LINE
  8
0
 10
113.38
 20
-92.6437
 11
113.145
 21
-92.5937
  0
LINE
  8
0
 10
113.145
 20
-92.5937
 11
112.925
 21
-92.4959
  0
LINE
  8
0
 10
112.925
 20
-92.4959
 11
112.73
 21
-92.3546
  0
LINE
  8
0
 10
112.73
 20
-92.3546
 11
112.57
 21
-92.1759
  0
LINE
  8
0
 10
112.57
 20
-92.1759
 11
112.449
 21
-91.9677
  0
LINE
  8
0
 10
112.449
 20
-91.9677
 11
112.375
 21
-91.7391
  0
LINE
  8
0
 10
112.375
 20
-91.7391
 11
112.35
 21
-91.5
  0
LINE
  8
0
 10
112.35
 20
-91.5
 11
112.375
 21
-91.2609
  0
LINE
  8
0
 10
112.375
 20
-91.2609
 11
112.449
 21
-91.0322
  0
LINE
  8
0
 10
112.449
 20
-91.0322
 11
112.57
 21
-90.824
  0
LINE
  8
0
 10
112.57
 20
-90.824
 11
112.73
 21
-90.6454
  0
LINE
  8
0
 10
112.73
 20
-90.6454
 11
112.925
 21
-90.5041
  0
LINE
  8
0
 10
112.925
 20
-90.5041
 11
113.145
 21
-90.4063
  0
LINE
  8
0
 10
113.145
 20
-90.4063
 11
113.38
 21
-90.3563
  0
LINE
  8
0
 10
113.38
 20
-90.3563
 11
113.62
 21
-90.3563
  0
LINE
  8
0
 10
113.62
 20
-90.3563
 11
113.855
 21
-90.4063
  0
LINE
  8
0
 10
113.855
 20
-90.4063
 11
114.075
 21
-90.5041
  0
LINE
  8
0
 10
114.075
 20
-90.5041
 11
114.269
 21
-90.6454
  0
LINE
  8
0
 10
114.269
 20
-90.6454
 11
114.43
 21
-90.824
  0
LINE
  8
0
 10
114.43
 20
-90.824
 11
114.551
 21
-91.0322
  0
LINE
  8
0
 10
114.551
 20
-91.0322
 11
114.625
 21
-91.2609
  0
LINE
  8
0
 10
114.625
 20
-91.2609
 11
114.65
 21
-91.5
  0
LINE
  8
0
 10
114.65
 20
-91.5
 11
114.625
 21
-91.7391
  0
LINE
  8
0
 10
114.625
 20
-91.7391
 11
114.551
 21
-91.9677
  0
LINE
  8
0
 10
114.551
 20
-91.9677
 11
114.43
 21
-92.1759
  0
LINE
  8
0
 10
114.43
 20
-92.1759
 11
114.269
 21
-92.3546
  0
LINE
  8
0
 10
114.269
 20
-92.3546
 11
114.075
 21
-92.4959
  0
LINE
  8
0
 10
114.075
 20
-92.4959
 11
113.855
 21
-92.5937
  0
LINE
  8
0
 10
113.855
 20
-92.5937
 11
113.62
 21
-92.6437
  0
LINE
  8
0
 10
113.62
 20
-92.6437
 11
113.38
 21
-92.6437
  0
LINE
  8
0
 10
108.704
 20
-103.024
 11
118.876
 21
-93.4044
  0
LINE
  8
0
 10
118.876
 20
-93.4044
 11
128.496
 21
-103.576
  0
LINE
  8
0
 10
128.496
 20
-103.576
 11
118.324
 21
-113.196
  0
LINE
  8
0
 10
118.324
 20
-113.196
 11
108.704
 21
-103.024
  0
LINE
  8
0
 10
121.427
 20
-118.8
 11
134.95
 21
-115.177
  0
LINE
  8
0
 10
134.95
 20
-115.177
 11
138.573
 21
-128.7
  0
LINE
  8
0
 10
138.573
 20
-128.7
 11
125.05
 21
-132.323
  0
LINE
  8
0
 10
125.05
 20
-132.323
 11
121.427
 21
-118.8
  0
ENDSEC
  0
SECTION
  2
OBJECTS
  0
DICTIONARY
  0
ENDSEC
  0
EOF
